<?xml version="1.0" encoding="UTF-8" standalone="no"?><!DOCTYPE svg PUBLIC "-//W3C//DTD SVG 1.1//EN" "http://www.w3.org/Graphics/SVG/1.1/DTD/svg11.dtd"><svg width="100%" height="100%" viewBox="0 0 4846 2946" version="1.1" xmlns="http://www.w3.org/2000/svg" xmlns:xlink="http://www.w3.org/1999/xlink" xml:space="preserve" xmlns:serif="http://www.serif.com/" style="fill-rule:evenodd;clip-rule:evenodd;stroke-linecap:round;stroke-linejoin:round;stroke-miterlimit:2;"><rect id="a---agora-media-production" serif:id="a + agora media production" x="1.016" y="4.056" width="4841.67" height="2941.67" style="fill:none;"/><g id="a"><path d="M127.558,2717.4l-0,-486.172l774.403,1.157l773.825,1.737l0,480.385l-773.825,1.736l-774.403,1.157Z" style="stroke:#000;stroke-width:7.5px;"/><path d="M1673.84,2031.53l-408.712,2.335l2.052,-114.654l-1.829,-22.686c0,2.258 -1.09,-1.505 -11.25,13.17c-10.16,14.675 -17.601,17.39 -42.436,39.967c-24.835,22.577 -53.557,38.827 -88.552,59.146c-34.995,20.32 -82.878,41.453 -141.579,57.257c-58.701,15.804 -124.105,19.262 -191.837,19.262c-207.711,0 -377.034,-51.364 -488.791,-150.704c-111.758,-99.34 -173.348,-244.281 -173.348,-400.064c-0,-153.525 53.607,-288.814 145.045,-371.221c91.437,-82.407 255.224,-152.298 478.739,-206.483c212.226,-51.928 333.637,-90.211 378.792,-117.303c51.927,-31.609 68.99,-56.482 68.99,-108.409c-0,-56.443 -18.955,-85.938 -70.882,-120.932c-51.928,-34.995 -114.854,-49.35 -214.194,-49.35c-112.886,-0 -183.6,19.773 -237.785,68.314c-54.186,48.541 -98.793,136.205 -130.402,235.545l-401.723,-169.527c45.155,-155.783 149.528,-307.965 275.961,-401.661c126.433,-93.695 285.084,-143.542 479.249,-143.542c221.257,-0 424.797,62.946 562.518,178.09c139.979,115.144 213.92,307.716 213.92,549.292l-1.946,1154.16Zm-830.039,-733.876c-106.113,24.835 -168.127,52.019 -206.509,88.142c-38.381,36.124 -50.063,67.235 -50.063,119.163c0,121.917 68.099,161.829 244.201,161.829c128.69,-0 213.034,-17.835 281.895,-66.377c68.86,-48.541 100.355,-99.61 100.355,-178.631l-4.348,-258.442c-13.546,22.578 -9.176,9.885 -15.949,16.658c-33.866,33.866 -148.645,67.988 -349.582,117.658Z" style="fill:none;fill-rule:nonzero;stroke:#000;stroke-width:7.5px;stroke-linejoin:miter;stroke-miterlimit:9;"/><path d="M1673.84,2031.53l-408.712,2.335l2.052,-114.654l-1.829,-22.686c0,2.258 -1.09,-1.505 -11.25,13.17c-10.16,14.675 -17.601,17.39 -42.436,39.967c-24.835,22.577 -53.557,38.827 -88.552,59.146c-34.995,20.32 -82.878,41.453 -141.579,57.257c-58.701,15.804 -124.105,19.262 -191.837,19.262c-207.711,0 -377.034,-51.364 -488.791,-150.704c-111.758,-99.34 -173.348,-244.281 -173.348,-400.064c-0,-153.525 53.607,-288.814 145.045,-371.221c91.437,-82.407 255.224,-152.298 478.739,-206.483c212.226,-51.928 333.637,-90.211 378.792,-117.303c51.927,-31.609 68.99,-56.482 68.99,-108.409c-0,-56.443 -18.955,-85.938 -70.882,-120.932c-51.928,-34.995 -114.854,-49.35 -214.194,-49.35c-112.886,-0 -183.6,19.773 -237.785,68.314c-54.186,48.541 -98.793,136.205 -130.402,235.545l-401.723,-169.527c45.155,-155.783 149.528,-307.965 275.961,-401.661c126.433,-93.695 285.084,-143.542 479.249,-143.542c221.257,-0 424.797,62.946 562.518,178.09c139.979,115.144 213.92,307.716 213.92,549.292l-1.946,1154.16Zm-830.039,-733.876c-106.113,24.835 -168.127,52.019 -206.509,88.142c-38.381,36.124 -50.063,67.235 -50.063,119.163c0,121.917 68.099,161.829 244.201,161.829c128.69,-0 213.034,-17.835 281.895,-66.377c68.86,-48.541 100.355,-99.61 100.355,-178.631l-4.348,-258.442c-13.546,22.578 -9.176,9.885 -15.949,16.658c-33.866,33.866 -148.645,67.988 -349.582,117.658Z" style="fill-rule:nonzero;"/></g><g id="agora-media-production" serif:id="agora media production"><g id="agora"><path d="M2535.07,1057.53l-53.137,0l-0,-24.862l-0.975,-0c-0,0.325 -0.731,1.544 -2.194,3.656c-1.462,2.113 -3.981,4.794 -7.556,8.044c-3.575,3.25 -7.881,6.337 -12.919,9.262c-5.037,2.925 -11.781,5.525 -20.231,7.8c-8.45,2.275 -17.55,3.413 -27.3,3.413c-29.9,-0 -52.894,-7.15 -68.981,-21.45c-16.088,-14.3 -24.132,-32.663 -24.132,-55.088c0,-22.1 6.582,-39.081 19.744,-50.943c13.163,-11.863 35.831,-21.694 68.006,-29.494c30.55,-7.475 49.075,-13.163 55.575,-17.063c7.475,-4.55 11.213,-10.562 11.213,-18.037c-0,-8.125 -3.738,-14.706 -11.213,-19.744c-7.475,-5.037 -18.362,-7.556 -32.662,-7.556c-16.25,-0 -28.275,3.494 -36.075,10.481c-7.8,6.988 -13.975,17.631 -18.525,31.931l-52.65,-21.937c6.5,-22.425 18.85,-40.381 37.05,-53.869c18.2,-13.487 41.275,-20.231 69.225,-20.231c31.85,-0 57.687,8.287 77.512,24.862c20.15,16.575 30.225,42.25 30.225,77.025l0,163.8Zm-117,-105.787c-15.275,3.575 -25.675,7.962 -31.2,13.162c-5.525,5.2 -8.287,11.538 -8.287,19.013c-0,17.55 12.675,26.325 38.025,26.325c18.525,-0 32.744,-3.494 42.656,-10.481c9.913,-6.988 14.869,-16.169 14.869,-27.544l-0,-44.85l-0.975,-0c-1.95,3.25 -3.413,5.362 -4.388,6.337c-4.875,4.875 -21.775,10.888 -50.7,18.038Z" style="fill-rule:nonzero;stroke:#000;stroke-width:3.54px;"/><path d="M2763.7,954.666l-0,-53.138c-0,-14.95 -5.119,-27.462 -15.356,-37.537c-10.238,-10.075 -23.644,-15.113 -40.219,-15.113c-19.175,0 -34.531,6.988 -46.069,20.963c-11.537,13.975 -17.306,33.475 -17.306,58.5c-0,25.025 5.85,44.525 17.55,58.5c11.7,13.975 26.975,20.962 45.825,20.962c16.575,0 29.981,-5.037 40.219,-15.112c10.237,-10.075 15.356,-22.75 15.356,-38.025Zm-163.8,155.512l47.287,-32.662c7.8,14.95 16.413,25.675 25.838,32.175c9.425,6.5 21.45,9.75 36.075,9.75c36.4,-0 54.6,-18.038 54.6,-54.113l-0,-32.662l-0.975,-0c-4.875,9.1 -13.406,16.737 -25.594,22.912c-12.187,6.175 -25.106,9.263 -38.756,9.263c-33.15,-0 -60.938,-12.025 -83.363,-36.075c-22.425,-24.375 -33.637,-57.85 -33.637,-100.425c-0,-41.6 11.537,-74.75 34.612,-99.45c22.75,-24.7 49.888,-37.05 81.413,-37.05c29.575,-0 52.325,10.725 68.25,32.175l0.975,-0l-0,-24.863l60.45,0l-0,258.375c-0,37.7 -11.05,66.625 -33.15,86.775c-22.1,20.15 -50.375,30.225 -84.825,30.225c-26.325,0 -48.913,-5.687 -67.763,-17.062c-18.85,-11.375 -32.662,-27.138 -41.437,-47.288Z" style="fill-rule:nonzero;stroke:#000;stroke-width:3.54px;"/><path d="M2953.83,987.328c10.075,13.65 24.375,20.475 42.9,20.475c18.525,0 32.825,-6.825 42.9,-20.475c10.4,-14.3 15.6,-33.962 15.6,-58.987c-0,-25.35 -5.363,-44.85 -16.088,-58.5c-10.075,-13.975 -24.212,-20.963 -42.412,-20.963c-17.875,0 -32.175,6.825 -42.9,20.475c-10.4,13.975 -15.6,33.638 -15.6,58.988c-0,25.35 5.2,45.012 15.6,58.987Zm-78,-58.987c-0,-42.25 11.7,-75.563 35.1,-99.938c23.4,-24.375 52,-36.562 85.8,-36.562c33.8,-0 62.4,12.187 85.8,36.562c23.4,24.375 35.1,57.688 35.1,99.938c-0,43.225 -11.375,76.7 -34.125,100.425c-23.075,24.05 -52,36.075 -86.775,36.075c-34.775,-0 -63.7,-12.025 -86.775,-36.075c-22.75,-23.725 -34.125,-57.2 -34.125,-100.425Z" style="fill-rule:nonzero;stroke:#000;stroke-width:3.54px;"/><path d="M3232.19,1057.53l-63.375,0l0,-258.375l59.963,0l-0,27.3l0.975,0c4.875,-9.75 12.106,-17.55 21.694,-23.4c9.587,-5.85 20.068,-8.775 31.443,-8.775c8.775,0 16.575,1.625 23.4,4.875l-9.75,61.425c-7.8,-2.6 -14.462,-3.9 -19.987,-3.9c-29.575,0 -44.363,19.663 -44.363,58.988l0,141.862Z" style="fill-rule:nonzero;stroke:#000;stroke-width:3.54px;"/><path d="M3548.09,1057.53l-53.137,0l-0,-24.862l-0.975,-0c-0,0.325 -0.731,1.544 -2.194,3.656c-1.462,2.113 -3.981,4.794 -7.556,8.044c-3.575,3.25 -7.881,6.337 -12.919,9.262c-5.037,2.925 -11.781,5.525 -20.231,7.8c-8.45,2.275 -17.55,3.413 -27.3,3.413c-29.9,-0 -52.894,-7.15 -68.981,-21.45c-16.088,-14.3 -24.132,-32.663 -24.132,-55.088c0,-22.1 6.582,-39.081 19.744,-50.943c13.163,-11.863 35.831,-21.694 68.006,-29.494c30.55,-7.475 49.075,-13.163 55.575,-17.063c7.475,-4.55 11.213,-10.562 11.213,-18.037c-0,-8.125 -3.738,-14.706 -11.213,-19.744c-7.475,-5.037 -18.362,-7.556 -32.662,-7.556c-16.25,-0 -28.275,3.494 -36.075,10.481c-7.8,6.988 -13.975,17.631 -18.525,31.931l-52.65,-21.937c6.5,-22.425 18.85,-40.381 37.05,-53.869c18.2,-13.487 41.275,-20.231 69.225,-20.231c31.85,-0 57.687,8.287 77.512,24.862c20.15,16.575 30.225,42.25 30.225,77.025l0,163.8Zm-117,-105.787c-15.275,3.575 -25.675,7.962 -31.2,13.162c-5.525,5.2 -8.287,11.538 -8.287,19.013c-0,17.55 12.675,26.325 38.025,26.325c18.525,-0 32.744,-3.494 42.656,-10.481c9.913,-6.988 14.869,-16.169 14.869,-27.544l-0,-44.85l-0.975,-0c-1.95,3.25 -3.413,5.362 -4.388,6.337c-4.875,4.875 -21.775,10.888 -50.7,18.038Z" style="fill-rule:nonzero;stroke:#000;stroke-width:3.54px;"/></g><g id="media"><path d="M2379.07,1511.69l-61.425,0l0,-258.375l58.013,0l-0,24.863l0.975,-0c6.175,-9.425 14.869,-17.144 26.081,-23.157c11.213,-6.012 23.319,-9.018 36.319,-9.018c13.65,-0 26.487,3.168 38.512,9.506c12.025,6.337 21.125,14.544 27.3,24.619l0.975,-0c6.825,-10.075 16.25,-18.282 28.275,-24.619c12.025,-6.338 25.025,-9.506 39,-9.506c30.875,-0 55.332,8.125 73.369,24.375c18.038,16.25 27.056,37.7 27.056,64.35l0,176.962l-58.012,0l-0,-163.8c-0,-13.325 -3.738,-23.887 -11.213,-31.687c-7.475,-7.8 -18.687,-11.7 -33.637,-11.7c-13.975,-0 -24.863,3.656 -32.663,10.968c-7.8,7.313 -11.7,16.982 -11.7,29.007l0,167.212l-58.012,0l-0,-163.8c-0,-12.675 -3.981,-23.075 -11.944,-31.2c-7.962,-8.125 -18.931,-12.187 -32.906,-12.187c-14.3,-0 -25.269,3.656 -32.906,10.968c-7.638,7.313 -11.457,16.982 -11.457,29.007l0,167.212Z" style="fill-rule:nonzero;stroke:#000;stroke-width:3.54px;"/><path d="M2907.03,1422.48l44.362,39c-26.325,38.35 -61.912,57.525 -106.762,57.525c-36.075,-0 -65.488,-12.35 -88.238,-37.05c-22.75,-24.7 -34.125,-57.85 -34.125,-99.45c0,-41.275 11.213,-74.263 33.638,-98.963c23.075,-25.025 51.675,-37.537 85.8,-37.537c34.45,-0 62.725,12.512 84.825,37.537c22.425,24.7 33.637,57.688 33.637,98.963l0,19.012l-173.55,0c0.975,19.825 6.419,35.019 16.332,45.581c9.912,10.563 23.481,15.844 40.706,15.844c13.65,0 25.269,-3.331 34.856,-9.994c9.588,-6.662 19.094,-16.818 28.519,-30.468Zm-120.413,-68.25l112.125,-0c-1.625,-16.575 -7.393,-29.494 -17.306,-38.757c-9.912,-9.262 -23.156,-13.893 -39.731,-13.893c-15.275,-0 -27.95,4.956 -38.025,14.868c-10.075,9.913 -15.763,22.507 -17.063,37.782Z" style="fill-rule:nonzero;stroke:#000;stroke-width:3.54px;"/><path d="M3171.74,1405.91l0,-47.288c0,-15.925 -5.037,-29.169 -15.112,-39.731c-10.075,-10.563 -23.563,-15.844 -40.463,-15.844c-18.85,0 -33.312,6.744 -43.387,20.231c-10.075,13.488 -15.113,33.232 -15.113,59.232c0,26 5.038,45.743 15.113,59.231c10.075,13.487 24.537,20.231 43.387,20.231c16.9,0 30.388,-5.362 40.463,-16.087c10.075,-10.725 15.112,-24.05 15.112,-39.975Zm63.375,105.787l-59.475,0l0,-24.862l-0.975,-0c-1.625,2.275 -4.062,5.2 -7.312,8.775c-2.925,3.575 -10.4,8.45 -22.425,14.625c-11.7,5.85 -24.538,8.775 -38.513,8.775c-34.125,-0 -61.425,-12.35 -81.9,-37.05c-20.15,-25.025 -30.225,-58.175 -30.225,-99.45c0,-41.6 11.05,-74.75 33.15,-99.45c21.775,-24.7 47.775,-37.05 78,-37.05c12.675,-0 24.538,2.518 35.588,7.556c11.05,5.037 18.85,10.481 23.4,16.331l6.337,8.288l0.975,-0l0,-122.363l63.375,0l0,355.875Z" style="fill-rule:nonzero;stroke:#000;stroke-width:3.54px;"/><path d="M3366.74,1511.69l-63.375,0l0,-258.375l63.375,0l0,258.375Zm0,-295.912l-63.375,-0l0,-59.963l63.375,0l0,59.963Z" style="fill-rule:nonzero;stroke:#000;stroke-width:3.54px;"/><path d="M3635.35,1511.69l-53.138,0l0,-24.862l-0.975,-0c0,0.325 -0.731,1.543 -2.193,3.656c-1.463,2.112 -3.982,4.794 -7.557,8.044c-3.575,3.25 -7.881,6.337 -12.918,9.262c-5.038,2.925 -11.782,5.525 -20.232,7.8c-8.45,2.275 -17.55,3.413 -27.3,3.413c-29.9,-0 -52.893,-7.15 -68.981,-21.45c-16.087,-14.3 -24.131,-32.663 -24.131,-55.088c-0,-22.1 6.581,-39.081 19.744,-50.944c13.162,-11.862 35.831,-21.693 68.006,-29.493c30.55,-7.475 49.075,-13.163 55.575,-17.063c7.475,-4.55 11.212,-10.562 11.212,-18.037c0,-8.125 -3.737,-14.707 -11.212,-19.744c-7.475,-5.038 -18.363,-7.556 -32.663,-7.556c-16.25,-0 -28.275,3.493 -36.075,10.481c-7.8,6.987 -13.975,17.631 -18.525,31.931l-52.65,-21.937c6.5,-22.425 18.85,-40.382 37.05,-53.869c18.2,-13.488 41.275,-20.231 69.225,-20.231c31.85,-0 57.688,8.287 77.513,24.862c20.15,16.575 30.225,42.25 30.225,77.025l-0,163.8Zm-117,-105.787c-15.275,3.575 -25.675,7.962 -31.2,13.162c-5.525,5.2 -8.288,11.538 -8.288,19.013c0,17.55 12.675,26.325 38.025,26.325c18.525,-0 32.744,-3.494 42.657,-10.482c9.912,-6.987 14.868,-16.168 14.868,-27.543l0,-44.85l-0.975,-0c-1.95,3.25 -3.412,5.362 -4.387,6.337c-4.875,4.875 -21.775,10.888 -50.7,18.038Z" style="fill-rule:nonzero;stroke:#000;stroke-width:3.54px;"/></g><g id="production"><path d="M2381.01,1809.86l0,53.137c0,15.275 5.119,27.95 15.357,38.025c10.237,10.075 23.643,15.113 40.218,15.113c18.85,-0 34.125,-6.988 45.825,-20.963c11.7,-13.975 17.55,-33.475 17.55,-58.5c0,-25.025 -5.768,-44.525 -17.306,-58.5c-11.537,-13.975 -26.894,-20.962 -46.069,-20.962c-16.575,-0 -29.981,5.037 -40.218,15.112c-10.238,10.075 -15.357,22.588 -15.357,37.538Zm0,265.687l-63.375,0l0,-368.062l60.45,-0l0,24.862l0.975,0c0,-0.975 2.113,-3.818 6.338,-8.531c4.225,-4.712 12.106,-9.831 23.644,-15.356c11.537,-5.525 24.781,-8.288 39.731,-8.288c30.55,0 57.2,12.35 79.95,37.05c23.075,24.7 34.612,57.85 34.612,99.45c0,41.925 -11.05,75.238 -33.15,99.938c-22.1,24.375 -48.912,36.562 -80.437,36.562c-16.9,0 -30.956,-3.168 -42.169,-9.506c-11.212,-6.337 -19.094,-12.756 -23.644,-19.256l-1.95,-3.413l-0.975,0l0,134.55Z" style="fill-rule:nonzero;stroke:#000;stroke-width:3.54px;"/><path d="M2677.9,1965.86l-63.375,-0l-0,-258.375l59.962,-0l0,27.3l0.975,-0c4.875,-9.75 12.107,-17.55 21.694,-23.4c9.588,-5.85 20.069,-8.775 31.444,-8.775c8.775,-0 16.575,1.625 23.4,4.875l-9.75,61.425c-7.8,-2.6 -14.463,-3.9 -19.988,-3.9c-29.575,-0 -44.362,19.662 -44.362,58.987l-0,141.863Z" style="fill-rule:nonzero;stroke:#000;stroke-width:3.54px;"/><path d="M2844.63,1895.66c10.075,13.65 24.375,20.475 42.9,20.475c18.525,-0 32.825,-6.825 42.9,-20.475c10.4,-14.3 15.6,-33.963 15.6,-58.988c-0,-25.35 -5.363,-44.85 -16.088,-58.5c-10.075,-13.975 -24.212,-20.962 -42.412,-20.962c-17.875,-0 -32.175,6.825 -42.9,20.475c-10.4,13.975 -15.6,33.637 -15.6,58.987c-0,25.35 5.2,45.013 15.6,58.988Zm-78,-58.988c-0,-42.25 11.7,-75.562 35.1,-99.937c23.4,-24.375 52,-36.563 85.8,-36.563c33.8,0 62.4,12.188 85.8,36.563c23.4,24.375 35.1,57.687 35.1,99.937c-0,43.225 -11.375,76.7 -34.125,100.425c-23.075,24.05 -52,36.075 -86.775,36.075c-34.775,0 -63.7,-12.025 -86.775,-36.075c-22.75,-23.725 -34.125,-57.2 -34.125,-100.425Z" style="fill-rule:nonzero;stroke:#000;stroke-width:3.54px;"/><path d="M3220,1860.07l-0,-47.287c-0,-15.925 -5.038,-29.169 -15.113,-39.731c-10.075,-10.563 -23.562,-15.844 -40.462,-15.844c-18.85,-0 -33.313,6.744 -43.388,20.231c-10.075,13.488 -15.112,33.231 -15.112,59.231c-0,26 5.037,45.744 15.112,59.232c10.075,13.487 24.538,20.231 43.388,20.231c16.9,-0 30.387,-5.363 40.462,-16.088c10.075,-10.725 15.113,-24.05 15.113,-39.975Zm63.375,105.788l-59.475,-0l-0,-24.863l-0.975,0c-1.625,2.275 -4.063,5.2 -7.313,8.775c-2.925,3.575 -10.4,8.45 -22.425,14.625c-11.7,5.85 -24.537,8.775 -38.512,8.775c-34.125,0 -61.425,-12.35 -81.9,-37.05c-20.15,-25.025 -30.225,-58.175 -30.225,-99.45c-0,-41.6 11.05,-74.75 33.15,-99.45c21.775,-24.7 47.775,-37.05 78,-37.05c12.675,0 24.537,2.519 35.587,7.557c11.05,5.037 18.85,10.481 23.4,16.331l6.338,8.287l0.975,0l-0,-122.362l63.375,-0l-0,355.875Z" style="fill-rule:nonzero;stroke:#000;stroke-width:3.54px;"/><path d="M3349.19,1874.21l0,-166.725l63.375,-0l0,159.9c0,16.25 3.088,27.787 9.263,34.612c6.175,6.825 16.087,10.238 29.737,10.238c15.925,-0 28.438,-4.063 37.538,-12.188c9.1,-8.125 13.65,-20.637 13.65,-37.537l-0,-155.025l63.375,-0l-0,258.375l-60.45,-0l-0,-24.863l-0.975,0c-16.25,21.45 -38.675,32.175 -67.275,32.175c-29.25,0 -51.269,-8.693 -66.056,-26.081c-14.788,-17.387 -22.182,-41.681 -22.182,-72.881Z" style="fill-rule:nonzero;stroke:#000;stroke-width:3.54px;"/><path d="M3789.4,1861.54l59.962,15.6c-5.85,30.875 -18.525,54.6 -38.025,71.175c-19.5,16.575 -44.037,24.862 -73.612,24.862c-34.775,0 -63.7,-12.025 -86.775,-36.075c-22.425,-23.725 -33.638,-57.2 -33.638,-100.425c0,-42.575 11.538,-75.887 34.613,-99.937c23.4,-24.375 52.162,-36.563 86.287,-36.563c28.925,0 53.138,8.45 72.638,25.35c19.5,16.9 31.525,39.488 36.075,67.763l-58.988,11.212c-6.175,-31.525 -22.75,-47.287 -49.725,-47.287c-18.2,-0 -32.5,6.825 -42.9,20.475c-10.4,13.65 -15.6,33.312 -15.6,58.987c0,25.675 5.119,45.338 15.357,58.988c10.237,13.65 24.618,20.475 43.143,20.475c28.925,-0 45.988,-18.2 51.188,-54.6Z" style="fill-rule:nonzero;stroke:#000;stroke-width:3.54px;"/><path d="M3911.28,1873.72l-0,-112.612l-39.975,-0l-0,-53.625l41.437,-0l0,-63.375l59.963,-0l-0,63.375l65.325,-0l-0,53.625l-64.35,-0l-0,106.762c-0,13.975 2.356,23.644 7.069,29.007c4.712,5.362 13.893,8.043 27.543,8.043l20.963,0l-0,60.938l-26.813,-0c-34.45,-0 -58.337,-7.313 -71.662,-21.938c-13,-14.3 -19.5,-37.7 -19.5,-70.2Z" style="fill-rule:nonzero;stroke:#000;stroke-width:3.54px;"/><path d="M4150.15,1965.86l-63.375,-0l-0,-258.375l63.375,-0l-0,258.375Zm-0,-295.913l-63.375,0l-0,-59.962l63.375,-0l-0,59.962Z" style="fill-rule:nonzero;stroke:#000;stroke-width:3.54px;"/><path d="M4279.34,1895.66c10.075,13.65 24.375,20.475 42.9,20.475c18.525,-0 32.825,-6.825 42.9,-20.475c10.4,-14.3 15.6,-33.963 15.6,-58.988c0,-25.35 -5.362,-44.85 -16.087,-58.5c-10.075,-13.975 -24.213,-20.962 -42.413,-20.962c-17.875,-0 -32.175,6.825 -42.9,20.475c-10.4,13.975 -15.6,33.637 -15.6,58.987c0,25.35 5.2,45.013 15.6,58.988Zm-78,-58.988c0,-42.25 11.7,-75.562 35.1,-99.937c23.4,-24.375 52,-36.563 85.8,-36.563c33.8,0 62.4,12.188 85.8,36.563c23.4,24.375 35.1,57.687 35.1,99.937c0,43.225 -11.375,76.7 -34.125,100.425c-23.075,24.05 -52,36.075 -86.775,36.075c-34.775,0 -63.7,-12.025 -86.775,-36.075c-22.75,-23.725 -34.125,-57.2 -34.125,-100.425Z" style="fill-rule:nonzero;stroke:#000;stroke-width:3.54px;"/><path d="M4557.7,1965.86l-63.375,-0l-0,-258.375l60.937,-0l0,24.862l0.975,0c7.15,-9.425 16.982,-17.143 29.494,-23.156c12.513,-6.012 25.431,-9.019 38.756,-9.019c28.6,0 51.025,8.532 67.275,25.594c16.25,17.063 24.375,40.706 24.375,70.931l0,169.163l-63.375,-0l0,-153.563c0,-18.2 -3.493,-31.687 -10.481,-40.462c-6.987,-8.775 -18.606,-13.163 -34.856,-13.163c-15.6,0 -27.788,4.469 -36.563,13.407c-8.775,8.937 -13.162,20.881 -13.162,35.831l-0,157.95Z" style="fill-rule:nonzero;stroke:#000;stroke-width:3.54px;"/></g></g></svg>