<?xml version="1.0" encoding="UTF-8" standalone="no"?><!DOCTYPE svg PUBLIC "-//W3C//DTD SVG 1.1//EN" "http://www.w3.org/Graphics/SVG/1.1/DTD/svg11.dtd"><svg width="100%" height="100%" viewBox="0 0 2630 2630" version="1.1" xmlns="http://www.w3.org/2000/svg" xmlns:xlink="http://www.w3.org/1999/xlink" xml:space="preserve" xmlns:serif="http://www.serif.com/" style="fill-rule:evenodd;clip-rule:evenodd;stroke-linecap:round;stroke-linejoin:round;stroke-miterlimit:2;"><rect id="a" x="2.976" y="2.436" width="2625" height="2625" style="fill:none;"/><clipPath id="_clip1"><rect x="2.976" y="2.436" width="2625" height="2625"/></clipPath><g clip-path="url(#_clip1)"><g id="a1" serif:id="a"><path d="M541.362,2598.64l-0,-486.172l774.403,1.157l773.825,1.736l0,480.385l-773.825,1.737l-774.403,1.157Z" style="stroke:#000;stroke-width:7.5px;"/><path d="M2087.64,1912.77l-408.712,2.335l2.052,-114.654l-1.829,-22.686c-0,2.257 -1.09,-1.506 -11.25,13.17c-10.16,14.675 -17.601,17.39 -42.436,39.967c-24.835,22.577 -53.557,38.826 -88.552,59.146c-34.995,20.319 -82.878,41.452 -141.579,57.256c-58.701,15.804 -124.105,19.263 -191.837,19.263c-207.711,-0 -377.034,-51.365 -488.791,-150.704c-111.758,-99.34 -173.348,-244.281 -173.348,-400.064c-0,-153.526 53.607,-288.814 145.045,-371.221c91.437,-82.407 255.224,-152.298 478.739,-206.484c212.226,-51.927 333.637,-90.21 378.791,-117.303c51.928,-31.608 68.99,-56.481 68.99,-108.409c0,-56.443 -18.954,-85.937 -70.881,-120.932c-51.928,-34.994 -114.854,-49.35 -214.194,-49.35c-112.886,0 -183.6,19.774 -237.786,68.315c-54.185,48.541 -98.792,136.204 -130.401,235.544l-401.723,-169.526c45.155,-155.783 149.528,-307.965 275.961,-401.661c126.433,-93.695 285.084,-143.543 479.248,-143.543c221.258,0 424.797,62.947 562.519,178.091c139.979,115.144 213.92,307.715 213.92,549.292l-1.946,1154.16Zm-830.039,-733.876c-106.113,24.835 -168.127,52.018 -206.509,88.142c-38.381,36.123 -50.063,67.235 -50.063,119.163c0,121.917 68.098,161.828 244.201,161.828c128.69,0 213.034,-17.835 281.895,-66.376c68.86,-48.541 100.354,-99.611 100.354,-178.631l-4.347,-258.442c-13.546,22.577 -9.176,9.884 -15.949,16.657c-33.866,33.866 -148.645,67.989 -349.582,117.659Z" style="fill:none;fill-rule:nonzero;stroke:#000;stroke-width:7.5px;stroke-linejoin:miter;stroke-miterlimit:9;"/><path d="M2087.64,1912.77l-408.712,2.335l2.052,-114.654l-1.829,-22.686c-0,2.257 -1.09,-1.506 -11.25,13.17c-10.16,14.675 -17.601,17.39 -42.436,39.967c-24.835,22.577 -53.557,38.826 -88.552,59.146c-34.995,20.319 -82.878,41.452 -141.579,57.256c-58.701,15.804 -124.105,19.263 -191.837,19.263c-207.711,-0 -377.034,-51.365 -488.791,-150.704c-111.758,-99.34 -173.348,-244.281 -173.348,-400.064c-0,-153.526 53.607,-288.814 145.045,-371.221c91.437,-82.407 255.224,-152.298 478.739,-206.484c212.226,-51.927 333.637,-90.21 378.791,-117.303c51.928,-31.608 68.99,-56.481 68.99,-108.409c0,-56.443 -18.954,-85.937 -70.881,-120.932c-51.928,-34.994 -114.854,-49.35 -214.194,-49.35c-112.886,0 -183.6,19.774 -237.786,68.315c-54.185,48.541 -98.792,136.204 -130.401,235.544l-401.723,-169.526c45.155,-155.783 149.528,-307.965 275.961,-401.661c126.433,-93.695 285.084,-143.543 479.248,-143.543c221.258,0 424.797,62.947 562.519,178.091c139.979,115.144 213.92,307.715 213.92,549.292l-1.946,1154.16Zm-830.039,-733.876c-106.113,24.835 -168.127,52.018 -206.509,88.142c-38.381,36.123 -50.063,67.235 -50.063,119.163c0,121.917 68.098,161.828 244.201,161.828c128.69,0 213.034,-17.835 281.895,-66.376c68.86,-48.541 100.354,-99.611 100.354,-178.631l-4.347,-258.442c-13.546,22.577 -9.176,9.884 -15.949,16.657c-33.866,33.866 -148.645,67.989 -349.582,117.659Z" style="fill-rule:nonzero;"/></g></g></svg>