<?xml version="1.0" encoding="UTF-8" standalone="no"?><!DOCTYPE svg PUBLIC "-//W3C//DTD SVG 1.1//EN" "http://www.w3.org/Graphics/SVG/1.1/DTD/svg11.dtd"><svg width="100%" height="100%" viewBox="0 0 8538 2180" version="1.1" xmlns="http://www.w3.org/2000/svg" xmlns:xlink="http://www.w3.org/1999/xlink" xml:space="preserve" xmlns:serif="http://www.serif.com/" style="fill-rule:evenodd;clip-rule:evenodd;stroke-linecap:round;stroke-linejoin:round;stroke-miterlimit:2;"><rect id="AGORA-media-production--yellow-" serif:id="AGORA media production (yellow)" x="1.009" y="0.967" width="8533.33" height="2175" style="fill:none;"/><g id="AGORA-media-production--yellow-1" serif:id="AGORA media production (yellow)"><g id="agora"><path d="M1131.7,1424.5l-240.18,0l0,-112.377l-4.407,-0c0,1.469 -3.305,6.977 -9.915,16.526c-6.611,9.548 -17.995,21.667 -34.154,36.357c-16.159,14.69 -35.623,28.645 -58.392,41.866c-22.77,13.221 -53.251,24.973 -91.445,35.256c-38.193,10.283 -79.325,15.424 -123.394,15.424c-135.147,0 -239.078,-32.317 -311.793,-96.953c-72.714,-64.635 -109.072,-147.633 -109.072,-248.993c0,-99.891 29.747,-176.645 89.241,-230.263c59.494,-53.618 161.956,-98.055 307.385,-133.311c138.085,-33.786 221.817,-59.494 251.197,-77.121c33.787,-20.566 50.68,-47.742 50.68,-81.529c-0,-36.725 -16.893,-66.472 -50.68,-89.241c-33.787,-22.769 -82.998,-34.154 -147.633,-34.154c-73.449,0 -127.802,15.792 -163.058,47.375c-35.255,31.583 -63.166,79.692 -83.732,144.328l-237.975,-99.157c29.379,-101.36 85.201,-182.521 167.464,-243.484c82.263,-60.963 186.561,-91.445 312.894,-91.445c143.96,0 260.745,37.46 350.353,112.378c91.077,74.918 136.616,190.968 136.616,348.149l-0,740.369Zm-528.835,-478.155c-69.043,16.159 -116.05,35.991 -141.023,59.494c-24.973,23.504 -37.459,52.149 -37.459,85.936c0,79.325 57.29,118.988 171.871,118.988c83.732,-0 148.001,-15.792 192.805,-47.375c44.804,-31.583 67.206,-73.082 67.206,-124.497l-0,-202.72l-4.407,0c-8.814,14.69 -15.425,24.239 -19.832,28.646c-22.034,22.034 -98.422,49.211 -229.161,81.528Z" style="fill:none;fill-rule:nonzero;stroke:#000;stroke-width:7.5px;"/><path d="M1131.7,1424.5l-240.18,0l0,-112.377l-4.407,-0c0,1.469 -3.305,6.977 -9.915,16.526c-6.611,9.548 -17.995,21.667 -34.154,36.357c-16.159,14.69 -35.623,28.645 -58.392,41.866c-22.77,13.221 -53.251,24.973 -91.445,35.256c-38.193,10.283 -79.325,15.424 -123.394,15.424c-135.147,0 -239.078,-32.317 -311.793,-96.953c-72.714,-64.635 -109.072,-147.633 -109.072,-248.993c0,-99.891 29.747,-176.645 89.241,-230.263c59.494,-53.618 161.956,-98.055 307.385,-133.311c138.085,-33.786 221.817,-59.494 251.197,-77.121c33.787,-20.566 50.68,-47.742 50.68,-81.529c-0,-36.725 -16.893,-66.472 -50.68,-89.241c-33.787,-22.769 -82.998,-34.154 -147.633,-34.154c-73.449,0 -127.802,15.792 -163.058,47.375c-35.255,31.583 -63.166,79.692 -83.732,144.328l-237.975,-99.157c29.379,-101.36 85.201,-182.521 167.464,-243.484c82.263,-60.963 186.561,-91.445 312.894,-91.445c143.96,0 260.745,37.46 350.353,112.378c91.077,74.918 136.616,190.968 136.616,348.149l-0,740.369Zm-528.835,-478.155c-69.043,16.159 -116.05,35.991 -141.023,59.494c-24.973,23.504 -37.459,52.149 -37.459,85.936c0,79.325 57.29,118.988 171.871,118.988c83.732,-0 148.001,-15.792 192.805,-47.375c44.804,-31.583 67.206,-73.082 67.206,-124.497l-0,-202.72l-4.407,0c-8.814,14.69 -15.425,24.239 -19.832,28.646c-22.034,22.034 -98.422,49.211 -229.161,81.528Z" style="fill:#efd578;fill-rule:nonzero;"/><path d="M2165.13,959.563l-0,-240.179c-0,-67.573 -23.137,-124.129 -69.41,-169.668c-46.273,-45.538 -106.868,-68.308 -181.787,-68.308c-86.67,0 -156.079,31.584 -208.228,94.75c-52.149,63.166 -78.224,151.306 -78.224,264.417c0,113.112 26.442,201.251 79.325,264.418c52.884,63.166 121.926,94.749 207.127,94.749c74.919,0 135.514,-22.769 181.787,-68.307c46.273,-45.539 69.41,-102.829 69.41,-171.872Zm-740.369,702.91l213.738,-147.633c35.255,67.573 74.183,116.05 116.784,145.429c42.601,29.38 96.953,44.07 163.057,44.07c164.527,-0 246.79,-81.529 246.79,-244.586l-0,-147.633l-4.407,-0c-22.035,41.131 -60.596,75.653 -115.683,103.563c-55.087,27.911 -113.479,41.866 -175.176,41.866c-149.837,0 -275.435,-54.352 -376.795,-163.057c-101.36,-110.174 -152.04,-261.479 -152.04,-453.917c-0,-188.03 52.149,-337.866 156.447,-449.509c102.829,-111.643 225.489,-167.465 367.981,-167.465c133.678,0 236.507,48.477 308.487,145.43l4.407,0l-0,-112.377l273.231,-0l0,1167.84c0,170.403 -49.945,301.142 -149.836,392.219c-99.891,91.077 -227.693,136.616 -383.406,136.616c-118.988,-0 -221.082,-25.707 -306.283,-77.122c-85.201,-51.414 -147.633,-122.66 -187.296,-213.737Z" style="fill:none;fill-rule:nonzero;stroke:#000;stroke-width:7.5px;"/><path d="M2165.13,959.563l-0,-240.179c-0,-67.573 -23.137,-124.129 -69.41,-169.668c-46.273,-45.538 -106.868,-68.308 -181.787,-68.308c-86.67,0 -156.079,31.584 -208.228,94.75c-52.149,63.166 -78.224,151.306 -78.224,264.417c0,113.112 26.442,201.251 79.325,264.418c52.884,63.166 121.926,94.749 207.127,94.749c74.919,0 135.514,-22.769 181.787,-68.307c46.273,-45.539 69.41,-102.829 69.41,-171.872Zm-740.369,702.91l213.738,-147.633c35.255,67.573 74.183,116.05 116.784,145.429c42.601,29.38 96.953,44.07 163.057,44.07c164.527,-0 246.79,-81.529 246.79,-244.586l-0,-147.633l-4.407,-0c-22.035,41.131 -60.596,75.653 -115.683,103.563c-55.087,27.911 -113.479,41.866 -175.176,41.866c-149.837,0 -275.435,-54.352 -376.795,-163.057c-101.36,-110.174 -152.04,-261.479 -152.04,-453.917c-0,-188.03 52.149,-337.866 156.447,-449.509c102.829,-111.643 225.489,-167.465 367.981,-167.465c133.678,0 236.507,48.477 308.487,145.43l4.407,0l-0,-112.377l273.231,-0l0,1167.84c0,170.403 -49.945,301.142 -149.836,392.219c-99.891,91.077 -227.693,136.616 -383.406,136.616c-118.988,-0 -221.082,-25.707 -306.283,-77.122c-85.201,-51.414 -147.633,-122.66 -187.296,-213.737Z" style="fill:#efd578;fill-rule:nonzero;"/><path d="M3024.49,1107.2c45.539,61.698 110.174,92.546 193.907,92.546c83.732,0 148.367,-30.848 193.906,-92.546c47.007,-64.635 70.511,-153.509 70.511,-266.621c-0,-114.58 -24.238,-202.72 -72.715,-264.417c-45.538,-63.166 -109.439,-94.75 -191.702,-94.75c-80.795,0 -145.43,30.849 -193.907,92.547c-47.007,63.166 -70.511,152.04 -70.511,266.62c0,114.581 23.504,203.455 70.511,266.621Zm-352.556,-266.621c-0,-190.968 52.883,-341.539 158.65,-451.713c105.767,-110.174 235.038,-165.261 387.813,-165.261c152.774,0 282.045,55.087 387.812,165.261c105.767,110.174 158.65,260.745 158.65,451.713c0,195.376 -51.414,346.681 -154.243,453.917c-104.298,108.705 -235.038,163.057 -392.219,163.057c-157.182,0 -287.922,-54.352 -392.22,-163.057c-102.829,-107.236 -154.243,-258.541 -154.243,-453.917Z" style="fill:none;fill-rule:nonzero;stroke:#000;stroke-width:7.5px;"/><path d="M3024.49,1107.2c45.539,61.698 110.174,92.546 193.907,92.546c83.732,0 148.367,-30.848 193.906,-92.546c47.007,-64.635 70.511,-153.509 70.511,-266.621c-0,-114.58 -24.238,-202.72 -72.715,-264.417c-45.538,-63.166 -109.439,-94.75 -191.702,-94.75c-80.795,0 -145.43,30.849 -193.907,92.547c-47.007,63.166 -70.511,152.04 -70.511,266.62c0,114.581 23.504,203.455 70.511,266.621Zm-352.556,-266.621c-0,-190.968 52.883,-341.539 158.65,-451.713c105.767,-110.174 235.038,-165.261 387.813,-165.261c152.774,0 282.045,55.087 387.812,165.261c105.767,110.174 158.65,260.745 158.65,451.713c0,195.376 -51.414,346.681 -154.243,453.917c-104.298,108.705 -235.038,163.057 -392.219,163.057c-157.182,0 -287.922,-54.352 -392.22,-163.057c-102.829,-107.236 -154.243,-258.541 -154.243,-453.917Z" style="fill:#efd578;fill-rule:nonzero;"/><path d="M4282.67,1424.5l-286.453,0l0,-1167.84l271.028,-0l0,123.394l4.407,0c22.035,-44.069 54.72,-79.325 98.055,-105.767c43.335,-26.441 90.71,-39.662 142.124,-39.662c39.663,-0 74.919,7.345 105.767,22.035l-44.069,277.638c-35.256,-11.752 -65.37,-17.628 -90.343,-17.628c-133.678,0 -200.516,88.874 -200.516,266.621l-0,641.212Z" style="fill:none;fill-rule:nonzero;stroke:#000;stroke-width:7.5px;"/><path d="M4282.67,1424.5l-286.453,0l0,-1167.84l271.028,-0l0,123.394l4.407,0c22.035,-44.069 54.72,-79.325 98.055,-105.767c43.335,-26.441 90.71,-39.662 142.124,-39.662c39.663,-0 74.919,7.345 105.767,22.035l-44.069,277.638c-35.256,-11.752 -65.37,-17.628 -90.343,-17.628c-133.678,0 -200.516,88.874 -200.516,266.621l-0,641.212Z" style="fill:#efd578;fill-rule:nonzero;"/><path d="M5710.53,1424.5l-240.18,0l0,-112.377l-4.407,-0c0,1.469 -3.305,6.977 -9.915,16.526c-6.611,9.548 -17.995,21.667 -34.154,36.357c-16.159,14.69 -35.623,28.645 -58.392,41.866c-22.77,13.221 -53.251,24.973 -91.445,35.256c-38.193,10.283 -79.325,15.424 -123.394,15.424c-135.147,0 -239.078,-32.317 -311.793,-96.953c-72.714,-64.635 -109.072,-147.633 -109.072,-248.993c0,-99.891 29.747,-176.645 89.241,-230.263c59.494,-53.618 161.956,-98.055 307.385,-133.311c138.085,-33.786 221.817,-59.494 251.197,-77.121c33.786,-20.566 50.68,-47.742 50.68,-81.529c-0,-36.725 -16.894,-66.472 -50.68,-89.241c-33.787,-22.769 -82.998,-34.154 -147.633,-34.154c-73.45,0 -127.802,15.792 -163.058,47.375c-35.255,31.583 -63.166,79.692 -83.732,144.328l-237.975,-99.157c29.379,-101.36 85.201,-182.521 167.464,-243.484c82.263,-60.963 186.561,-91.445 312.894,-91.445c143.96,0 260.745,37.46 350.353,112.378c91.077,74.918 136.616,190.968 136.616,348.149l-0,740.369Zm-528.835,-478.155c-69.043,16.159 -116.05,35.991 -141.023,59.494c-24.973,23.504 -37.459,52.149 -37.459,85.936c-0,79.325 57.29,118.988 171.871,118.988c83.732,-0 148.001,-15.792 192.805,-47.375c44.804,-31.583 67.206,-73.082 67.206,-124.497l-0,-202.72l-4.407,0c-8.814,14.69 -15.425,24.239 -19.832,28.646c-22.034,22.034 -98.422,49.211 -229.161,81.528Z" style="fill:none;fill-rule:nonzero;stroke:#000;stroke-width:7.5px;"/><path d="M5710.53,1424.5l-240.18,0l0,-112.377l-4.407,-0c0,1.469 -3.305,6.977 -9.915,16.526c-6.611,9.548 -17.995,21.667 -34.154,36.357c-16.159,14.69 -35.623,28.645 -58.392,41.866c-22.77,13.221 -53.251,24.973 -91.445,35.256c-38.193,10.283 -79.325,15.424 -123.394,15.424c-135.147,0 -239.078,-32.317 -311.793,-96.953c-72.714,-64.635 -109.072,-147.633 -109.072,-248.993c0,-99.891 29.747,-176.645 89.241,-230.263c59.494,-53.618 161.956,-98.055 307.385,-133.311c138.085,-33.786 221.817,-59.494 251.197,-77.121c33.786,-20.566 50.68,-47.742 50.68,-81.529c-0,-36.725 -16.894,-66.472 -50.68,-89.241c-33.787,-22.769 -82.998,-34.154 -147.633,-34.154c-73.45,0 -127.802,15.792 -163.058,47.375c-35.255,31.583 -63.166,79.692 -83.732,144.328l-237.975,-99.157c29.379,-101.36 85.201,-182.521 167.464,-243.484c82.263,-60.963 186.561,-91.445 312.894,-91.445c143.96,0 260.745,37.46 350.353,112.378c91.077,74.918 136.616,190.968 136.616,348.149l-0,740.369Zm-528.835,-478.155c-69.043,16.159 -116.05,35.991 -141.023,59.494c-24.973,23.504 -37.459,52.149 -37.459,85.936c-0,79.325 57.29,118.988 171.871,118.988c83.732,-0 148.001,-15.792 192.805,-47.375c44.804,-31.583 67.206,-73.082 67.206,-124.497l-0,-202.72l-4.407,0c-8.814,14.69 -15.425,24.239 -19.832,28.646c-22.034,22.034 -98.422,49.211 -229.161,81.528Z" style="fill:#efd578;fill-rule:nonzero;"/><path d="M148.946,1879.08l0,-308.602l491.56,0.734l491.192,1.103l-0,304.928l-491.192,1.102l-491.56,0.735Z" style="fill:none;stroke:#000;stroke-width:7.5px;stroke-linecap:butt;"/><path d="M148.946,1879.08l0,-308.602l491.56,0.734l491.192,1.103l-0,304.928l-491.192,1.102l-491.56,0.735Z" style="fill:#efd578;"/></g><g id="media"><path d="M6198.53,987.263l-57.504,-0l0,-241.88l54.309,-0l0,23.275l0.913,-0c5.781,-8.823 13.919,-16.049 24.416,-21.678c10.497,-5.629 21.83,-8.443 34,-8.443c12.779,0 24.797,2.967 36.054,8.899c11.257,5.933 19.776,13.616 25.557,23.047l0.913,0c6.389,-9.431 15.212,-17.114 26.47,-23.047c11.257,-5.932 23.427,-8.899 36.51,-8.899c28.904,0 51.799,7.606 68.685,22.819c16.886,15.212 25.329,35.293 25.329,60.242l-0,165.665l-54.309,-0l-0,-153.343c-0,-12.474 -3.499,-22.363 -10.497,-29.665c-6.998,-7.302 -17.494,-10.953 -31.49,-10.953c-13.083,0 -23.275,3.423 -30.577,10.269c-7.302,6.845 -10.953,15.897 -10.953,27.154l-0,156.538l-54.309,-0l-0,-153.343c-0,-11.866 -3.727,-21.602 -11.181,-29.208c-7.455,-7.607 -17.723,-11.41 -30.806,-11.41c-13.387,0 -23.655,3.423 -30.805,10.269c-7.15,6.845 -10.725,15.897 -10.725,27.154l-0,156.538Z" style="fill:none;fill-rule:nonzero;stroke:#000;stroke-width:3.75px;"/><path d="M6198.53,987.263l-57.504,-0l0,-241.88l54.309,-0l0,23.275l0.913,-0c5.781,-8.823 13.919,-16.049 24.416,-21.678c10.497,-5.629 21.83,-8.443 34,-8.443c12.779,0 24.797,2.967 36.054,8.899c11.257,5.933 19.776,13.616 25.557,23.047l0.913,0c6.389,-9.431 15.212,-17.114 26.47,-23.047c11.257,-5.932 23.427,-8.899 36.51,-8.899c28.904,0 51.799,7.606 68.685,22.819c16.886,15.212 25.329,35.293 25.329,60.242l-0,165.665l-54.309,-0l-0,-153.343c-0,-12.474 -3.499,-22.363 -10.497,-29.665c-6.998,-7.302 -17.494,-10.953 -31.49,-10.953c-13.083,0 -23.275,3.423 -30.577,10.269c-7.302,6.845 -10.953,15.897 -10.953,27.154l-0,156.538l-54.309,-0l-0,-153.343c-0,-11.866 -3.727,-21.602 -11.181,-29.208c-7.455,-7.607 -17.723,-11.41 -30.806,-11.41c-13.387,0 -23.655,3.423 -30.805,10.269c-7.15,6.845 -10.725,15.897 -10.725,27.154l-0,156.538Z" style="fill:#efd578;fill-rule:nonzero;"/><path d="M6692.79,903.746l41.53,36.51c-24.644,35.901 -57.959,53.852 -99.946,53.852c-33.772,0 -61.307,-11.561 -82.604,-34.684c-21.298,-23.124 -31.947,-54.157 -31.947,-93.101c0,-38.64 10.497,-69.522 31.49,-92.645c21.602,-23.427 48.376,-35.141 80.323,-35.141c32.25,0 58.72,11.714 79.409,35.141c20.994,23.123 31.49,54.005 31.49,92.645l0,17.798l-162.47,0c0.913,18.56 6.009,32.783 15.289,42.672c9.279,9.888 21.982,14.832 38.107,14.832c12.779,-0 23.656,-3.119 32.631,-9.356c8.975,-6.237 17.875,-15.745 26.698,-28.523Zm-112.725,-63.893l104.967,-0c-1.522,-15.517 -6.922,-27.611 -16.202,-36.282c-9.279,-8.671 -21.678,-13.007 -37.194,-13.007c-14.3,0 -26.166,4.64 -35.598,13.92c-9.432,9.279 -14.756,21.069 -15.973,35.369Z" style="fill:none;fill-rule:nonzero;stroke:#000;stroke-width:3.75px;"/><path d="M6692.79,903.746l41.53,36.51c-24.644,35.901 -57.959,53.852 -99.946,53.852c-33.772,0 -61.307,-11.561 -82.604,-34.684c-21.298,-23.124 -31.947,-54.157 -31.947,-93.101c0,-38.64 10.497,-69.522 31.49,-92.645c21.602,-23.427 48.376,-35.141 80.323,-35.141c32.25,0 58.72,11.714 79.409,35.141c20.994,23.123 31.49,54.005 31.49,92.645l0,17.798l-162.47,0c0.913,18.56 6.009,32.783 15.289,42.672c9.279,9.888 21.982,14.832 38.107,14.832c12.779,-0 23.656,-3.119 32.631,-9.356c8.975,-6.237 17.875,-15.745 26.698,-28.523Zm-112.725,-63.893l104.967,-0c-1.522,-15.517 -6.922,-27.611 -16.202,-36.282c-9.279,-8.671 -21.678,-13.007 -37.194,-13.007c-14.3,0 -26.166,4.64 -35.598,13.92c-9.432,9.279 -14.756,21.069 -15.973,35.369Z" style="fill:#efd578;fill-rule:nonzero;"/><path d="M6940.6,888.229l-0,-44.269c-0,-14.908 -4.716,-27.306 -14.148,-37.195c-9.432,-9.888 -22.058,-14.832 -37.879,-14.832c-17.647,0 -31.186,6.313 -40.618,18.94c-9.432,12.626 -14.147,31.11 -14.147,55.45c-0,24.34 4.715,42.823 14.147,55.449c9.432,12.627 22.971,18.94 40.618,18.94c15.821,0 28.447,-5.02 37.879,-15.06c9.432,-10.041 14.148,-22.515 14.148,-37.423Zm59.329,99.034l-55.678,-0l-0,-23.276l-0.913,0c-1.521,2.13 -3.803,4.868 -6.846,8.215c-2.738,3.347 -9.736,7.911 -20.993,13.691c-10.953,5.477 -22.971,8.215 -36.054,8.215c-31.946,0 -57.503,-11.561 -76.671,-34.684c-18.864,-23.428 -28.295,-54.461 -28.295,-93.101c-0,-38.945 10.344,-69.978 31.033,-93.101c20.385,-23.123 44.725,-34.685 73.021,-34.685c11.865,0 22.971,2.358 33.315,7.074c10.345,4.716 17.647,9.812 21.906,15.289l5.933,7.758l0.913,-0l-0,-114.551l59.329,0l-0,333.156Z" style="fill:none;fill-rule:nonzero;stroke:#000;stroke-width:3.75px;"/><path d="M6940.6,888.229l-0,-44.269c-0,-14.908 -4.716,-27.306 -14.148,-37.195c-9.432,-9.888 -22.058,-14.832 -37.879,-14.832c-17.647,0 -31.186,6.313 -40.618,18.94c-9.432,12.626 -14.147,31.11 -14.147,55.45c-0,24.34 4.715,42.823 14.147,55.449c9.432,12.627 22.971,18.94 40.618,18.94c15.821,0 28.447,-5.02 37.879,-15.06c9.432,-10.041 14.148,-22.515 14.148,-37.423Zm59.329,99.034l-55.678,-0l-0,-23.276l-0.913,0c-1.521,2.13 -3.803,4.868 -6.846,8.215c-2.738,3.347 -9.736,7.911 -20.993,13.691c-10.953,5.477 -22.971,8.215 -36.054,8.215c-31.946,0 -57.503,-11.561 -76.671,-34.684c-18.864,-23.428 -28.295,-54.461 -28.295,-93.101c-0,-38.945 10.344,-69.978 31.033,-93.101c20.385,-23.123 44.725,-34.685 73.021,-34.685c11.865,0 22.971,2.358 33.315,7.074c10.345,4.716 17.647,9.812 21.906,15.289l5.933,7.758l0.913,-0l-0,-114.551l59.329,0l-0,333.156Z" style="fill:#efd578;fill-rule:nonzero;"/><path d="M7123.15,987.263l-59.329,-0l-0,-241.88l59.329,-0l-0,241.88Zm-0,-277.021l-59.329,-0l-0,-56.135l59.329,0l-0,56.135Z" style="fill:none;fill-rule:nonzero;stroke:#000;stroke-width:3.75px;"/><path d="M7123.15,987.263l-59.329,-0l-0,-241.88l59.329,-0l-0,241.88Zm-0,-277.021l-59.329,-0l-0,-56.135l59.329,0l-0,56.135Z" style="fill:#efd578;fill-rule:nonzero;"/><path d="M7374.62,987.263l-49.745,-0l0,-23.276l-0.913,0c0,0.305 -0.684,1.445 -2.053,3.423c-1.369,1.978 -3.727,4.488 -7.074,7.53c-3.347,3.043 -7.378,5.933 -12.094,8.672c-4.716,2.738 -11.029,5.172 -18.94,7.302c-7.91,2.129 -16.429,3.194 -25.557,3.194c-27.991,0 -49.517,-6.693 -64.577,-20.08c-15.061,-13.387 -22.591,-30.578 -22.591,-51.571c0,-20.689 6.161,-36.586 18.483,-47.691c12.323,-11.106 33.544,-20.309 63.665,-27.611c28.6,-6.998 45.942,-12.322 52.027,-15.973c6.998,-4.26 10.497,-9.889 10.497,-16.886c-0,-7.607 -3.499,-13.768 -10.497,-18.484c-6.998,-4.716 -17.19,-7.073 -30.577,-7.073c-15.213,-0 -26.47,3.27 -33.772,9.812c-7.302,6.541 -13.083,16.505 -17.342,29.892l-49.289,-20.537c6.085,-20.993 17.646,-37.803 34.684,-50.429c17.039,-12.627 38.64,-18.94 64.806,-18.94c29.817,0 54.005,7.758 72.564,23.275c18.863,15.517 28.295,39.553 28.295,72.108l0,153.343Zm-109.53,-99.034c-14.3,3.346 -24.036,7.454 -29.208,12.322c-5.173,4.868 -7.759,10.801 -7.759,17.799c0,16.429 11.866,24.644 35.598,24.644c17.342,-0 30.653,-3.271 39.933,-9.812c9.279,-6.542 13.919,-15.137 13.919,-25.785l0,-41.987l-0.913,-0c-1.825,3.042 -3.194,5.02 -4.107,5.933c-4.564,4.564 -20.385,10.192 -47.463,16.886Z" style="fill:none;fill-rule:nonzero;stroke:#000;stroke-width:3.75px;"/><path d="M7374.62,987.263l-49.745,-0l0,-23.276l-0.913,0c0,0.305 -0.684,1.445 -2.053,3.423c-1.369,1.978 -3.727,4.488 -7.074,7.53c-3.347,3.043 -7.378,5.933 -12.094,8.672c-4.716,2.738 -11.029,5.172 -18.94,7.302c-7.91,2.129 -16.429,3.194 -25.557,3.194c-27.991,0 -49.517,-6.693 -64.577,-20.08c-15.061,-13.387 -22.591,-30.578 -22.591,-51.571c0,-20.689 6.161,-36.586 18.483,-47.691c12.323,-11.106 33.544,-20.309 63.665,-27.611c28.6,-6.998 45.942,-12.322 52.027,-15.973c6.998,-4.26 10.497,-9.889 10.497,-16.886c-0,-7.607 -3.499,-13.768 -10.497,-18.484c-6.998,-4.716 -17.19,-7.073 -30.577,-7.073c-15.213,-0 -26.47,3.27 -33.772,9.812c-7.302,6.541 -13.083,16.505 -17.342,29.892l-49.289,-20.537c6.085,-20.993 17.646,-37.803 34.684,-50.429c17.039,-12.627 38.64,-18.94 64.806,-18.94c29.817,0 54.005,7.758 72.564,23.275c18.863,15.517 28.295,39.553 28.295,72.108l0,153.343Zm-109.53,-99.034c-14.3,3.346 -24.036,7.454 -29.208,12.322c-5.173,4.868 -7.759,10.801 -7.759,17.799c0,16.429 11.866,24.644 35.598,24.644c17.342,-0 30.653,-3.271 39.933,-9.812c9.279,-6.542 13.919,-15.137 13.919,-25.785l0,-41.987l-0.913,-0c-1.825,3.042 -3.194,5.02 -4.107,5.933c-4.564,4.564 -20.385,10.192 -47.463,16.886Z" style="fill:#efd578;fill-rule:nonzero;"/></g><g id="production"><path d="M6200.36,1266.39l0,49.745c0,14.299 4.792,26.165 14.376,35.597c9.584,9.432 22.135,14.148 37.651,14.148c17.647,-0 31.947,-6.542 42.9,-19.624c10.953,-13.083 16.429,-31.338 16.429,-54.766c0,-23.427 -5.4,-41.682 -16.201,-54.765c-10.801,-13.083 -25.177,-19.624 -43.128,-19.624c-15.516,-0 -28.067,4.716 -37.651,14.148c-9.584,9.431 -14.376,21.145 -14.376,35.141Zm0,248.725l-59.329,0l0,-344.565l56.591,0l0,23.276l0.913,-0c-0,-0.913 1.978,-3.575 5.933,-7.987c3.955,-4.412 11.333,-9.204 22.134,-14.376c10.801,-5.172 23.199,-7.758 37.195,-7.758c28.599,-0 53.548,11.561 74.846,34.684c21.601,23.124 32.402,54.157 32.402,93.101c0,39.249 -10.344,70.434 -31.033,93.558c-20.689,22.818 -45.79,34.228 -75.302,34.228c-15.822,-0 -28.98,-2.967 -39.477,-8.899c-10.497,-5.933 -17.875,-11.942 -22.134,-18.027l-1.826,-3.195l-0.913,-0l0,125.96Z" style="fill:none;fill-rule:nonzero;stroke:#000;stroke-width:3.75px;"/><path d="M6200.36,1266.39l0,49.745c0,14.299 4.792,26.165 14.376,35.597c9.584,9.432 22.135,14.148 37.651,14.148c17.647,-0 31.947,-6.542 42.9,-19.624c10.953,-13.083 16.429,-31.338 16.429,-54.766c0,-23.427 -5.4,-41.682 -16.201,-54.765c-10.801,-13.083 -25.177,-19.624 -43.128,-19.624c-15.516,-0 -28.067,4.716 -37.651,14.148c-9.584,9.431 -14.376,21.145 -14.376,35.141Zm0,248.725l-59.329,0l0,-344.565l56.591,0l0,23.276l0.913,-0c-0,-0.913 1.978,-3.575 5.933,-7.987c3.955,-4.412 11.333,-9.204 22.134,-14.376c10.801,-5.172 23.199,-7.758 37.195,-7.758c28.599,-0 53.548,11.561 74.846,34.684c21.601,23.124 32.402,54.157 32.402,93.101c0,39.249 -10.344,70.434 -31.033,93.558c-20.689,22.818 -45.79,34.228 -75.302,34.228c-15.822,-0 -28.98,-2.967 -39.477,-8.899c-10.497,-5.933 -17.875,-11.942 -22.134,-18.027l-1.826,-3.195l-0.913,-0l0,125.96Z" style="fill:#efd578;fill-rule:nonzero;"/><path d="M6478.29,1412.43l-59.329,0l-0,-241.88l56.134,0l0,25.558l0.913,-0c4.564,-9.128 11.333,-16.43 20.309,-21.907c8.975,-5.476 18.787,-8.214 29.436,-8.214c8.215,-0 15.517,1.521 21.906,4.563l-9.127,57.504c-7.302,-2.434 -13.539,-3.651 -18.712,-3.651c-27.687,-0 -41.53,18.407 -41.53,55.222l-0,132.805Z" style="fill:none;fill-rule:nonzero;stroke:#000;stroke-width:3.75px;"/><path d="M6478.29,1412.43l-59.329,0l-0,-241.88l56.134,0l0,25.558l0.913,-0c4.564,-9.128 11.333,-16.43 20.309,-21.907c8.975,-5.476 18.787,-8.214 29.436,-8.214c8.215,-0 15.517,1.521 21.906,4.563l-9.127,57.504c-7.302,-2.434 -13.539,-3.651 -18.712,-3.651c-27.687,-0 -41.53,18.407 -41.53,55.222l-0,132.805Z" style="fill:#efd578;fill-rule:nonzero;"/><path d="M6634.38,1346.72c9.432,12.778 22.819,19.168 40.161,19.168c17.342,-0 30.729,-6.39 40.161,-19.168c9.736,-13.387 14.604,-31.794 14.604,-55.222c0,-23.731 -5.02,-41.986 -15.06,-54.765c-9.432,-13.083 -22.667,-19.624 -39.705,-19.624c-16.734,-0 -30.121,6.389 -40.161,19.168c-9.736,13.083 -14.604,31.49 -14.604,55.221c-0,23.732 4.868,42.139 14.604,55.222Zm-73.02,-55.222c-0,-39.552 10.953,-70.738 32.859,-93.557c21.906,-22.819 48.68,-34.228 80.322,-34.228c31.642,-0 58.416,11.409 80.322,34.228c21.906,22.819 32.86,54.005 32.86,93.557c-0,40.466 -10.649,71.804 -31.947,94.014c-21.602,22.515 -48.68,33.772 -81.235,33.772c-32.555,-0 -59.633,-11.257 -81.235,-33.772c-21.298,-22.21 -31.946,-53.548 -31.946,-94.014Z" style="fill:none;fill-rule:nonzero;stroke:#000;stroke-width:3.75px;"/><path d="M6634.38,1346.72c9.432,12.778 22.819,19.168 40.161,19.168c17.342,-0 30.729,-6.39 40.161,-19.168c9.736,-13.387 14.604,-31.794 14.604,-55.222c0,-23.731 -5.02,-41.986 -15.06,-54.765c-9.432,-13.083 -22.667,-19.624 -39.705,-19.624c-16.734,-0 -30.121,6.389 -40.161,19.168c-9.736,13.083 -14.604,31.49 -14.604,55.221c-0,23.732 4.868,42.139 14.604,55.222Zm-73.02,-55.222c-0,-39.552 10.953,-70.738 32.859,-93.557c21.906,-22.819 48.68,-34.228 80.322,-34.228c31.642,-0 58.416,11.409 80.322,34.228c21.906,22.819 32.86,54.005 32.86,93.557c-0,40.466 -10.649,71.804 -31.947,94.014c-21.602,22.515 -48.68,33.772 -81.235,33.772c-32.555,-0 -59.633,-11.257 -81.235,-33.772c-21.298,-22.21 -31.946,-53.548 -31.946,-94.014Z" style="fill:#efd578;fill-rule:nonzero;"/><path d="M6985.78,1313.4l0,-44.268c0,-14.908 -4.716,-27.307 -14.148,-37.195c-9.431,-9.888 -22.058,-14.832 -37.879,-14.832c-17.646,-0 -31.186,6.313 -40.617,18.94c-9.432,12.626 -14.148,31.109 -14.148,55.449c-0,24.34 4.716,42.824 14.148,55.45c9.431,12.627 22.971,18.94 40.617,18.94c15.821,-0 28.448,-5.02 37.879,-15.061c9.432,-10.04 14.148,-22.514 14.148,-37.423Zm59.329,99.034l-55.678,0l0,-23.275l-0.913,-0c-1.521,2.13 -3.803,4.868 -6.845,8.215c-2.739,3.347 -9.736,7.91 -20.994,13.691c-10.953,5.477 -22.971,8.215 -36.053,8.215c-31.947,-0 -57.504,-11.562 -76.672,-34.685c-18.863,-23.427 -28.295,-54.461 -28.295,-93.101c-0,-38.944 10.344,-69.977 31.034,-93.101c20.384,-23.123 44.724,-34.684 73.02,-34.684c11.866,-0 22.971,2.358 33.315,7.074c10.345,4.716 17.647,9.812 21.906,15.288l5.933,7.759l0.913,-0l0,-114.551l59.329,0l0,333.155Z" style="fill:none;fill-rule:nonzero;stroke:#000;stroke-width:3.75px;"/><path d="M6985.78,1313.4l0,-44.268c0,-14.908 -4.716,-27.307 -14.148,-37.195c-9.431,-9.888 -22.058,-14.832 -37.879,-14.832c-17.646,-0 -31.186,6.313 -40.617,18.94c-9.432,12.626 -14.148,31.109 -14.148,55.449c-0,24.34 4.716,42.824 14.148,55.45c9.431,12.627 22.971,18.94 40.617,18.94c15.821,-0 28.448,-5.02 37.879,-15.061c9.432,-10.04 14.148,-22.514 14.148,-37.423Zm59.329,99.034l-55.678,0l0,-23.275l-0.913,-0c-1.521,2.13 -3.803,4.868 -6.845,8.215c-2.739,3.347 -9.736,7.91 -20.994,13.691c-10.953,5.477 -22.971,8.215 -36.053,8.215c-31.947,-0 -57.504,-11.562 -76.672,-34.685c-18.863,-23.427 -28.295,-54.461 -28.295,-93.101c-0,-38.944 10.344,-69.977 31.034,-93.101c20.384,-23.123 44.724,-34.684 73.02,-34.684c11.866,-0 22.971,2.358 33.315,7.074c10.345,4.716 17.647,9.812 21.906,15.288l5.933,7.759l0.913,-0l0,-114.551l59.329,0l0,333.155Z" style="fill:#efd578;fill-rule:nonzero;"/><path d="M7106.73,1326.63l0,-156.081l59.329,0l0,149.692c0,15.213 2.89,26.014 8.671,32.403c5.781,6.389 15.061,9.584 27.839,9.584c14.908,-0 26.622,-3.803 35.141,-11.41c8.519,-7.606 12.779,-19.32 12.779,-35.141l-0,-145.128l59.329,0l-0,241.88l-56.591,0l0,-23.275l-0.913,-0c-15.212,20.081 -36.206,30.121 -62.98,30.121c-27.382,-0 -47.995,-8.139 -61.839,-24.416c-13.843,-16.278 -20.765,-39.021 -20.765,-68.229Z" style="fill:none;fill-rule:nonzero;stroke:#000;stroke-width:3.75px;"/><path d="M7106.73,1326.63l0,-156.081l59.329,0l0,149.692c0,15.213 2.89,26.014 8.671,32.403c5.781,6.389 15.061,9.584 27.839,9.584c14.908,-0 26.622,-3.803 35.141,-11.41c8.519,-7.606 12.779,-19.32 12.779,-35.141l-0,-145.128l59.329,0l-0,241.88l-56.591,0l0,-23.275l-0.913,-0c-15.212,20.081 -36.206,30.121 -62.98,30.121c-27.382,-0 -47.995,-8.139 -61.839,-24.416c-13.843,-16.278 -20.765,-39.021 -20.765,-68.229Z" style="fill:#efd578;fill-rule:nonzero;"/><path d="M7518.83,1314.77l56.135,14.604c-5.477,28.903 -17.343,51.114 -35.598,66.631c-18.255,15.516 -41.226,23.275 -68.913,23.275c-32.554,-0 -59.633,-11.257 -81.235,-33.772c-20.993,-22.21 -31.49,-53.548 -31.49,-94.014c0,-39.857 10.801,-71.042 32.403,-93.557c21.906,-22.819 48.832,-34.228 80.779,-34.228c27.078,-0 49.745,7.91 68,23.731c18.255,15.821 29.512,36.967 33.772,63.437l-55.222,10.496c-5.781,-29.512 -21.297,-44.268 -46.55,-44.268c-17.038,-0 -30.425,6.389 -40.161,19.168c-9.736,12.778 -14.604,31.185 -14.604,55.221c-0,24.036 4.792,42.443 14.375,55.222c9.584,12.778 23.048,19.168 40.39,19.168c27.078,-0 43.051,-17.038 47.919,-51.114Z" style="fill:none;fill-rule:nonzero;stroke:#000;stroke-width:3.75px;"/><path d="M7518.83,1314.77l56.135,14.604c-5.477,28.903 -17.343,51.114 -35.598,66.631c-18.255,15.516 -41.226,23.275 -68.913,23.275c-32.554,-0 -59.633,-11.257 -81.235,-33.772c-20.993,-22.21 -31.49,-53.548 -31.49,-94.014c0,-39.857 10.801,-71.042 32.403,-93.557c21.906,-22.819 48.832,-34.228 80.779,-34.228c27.078,-0 49.745,7.91 68,23.731c18.255,15.821 29.512,36.967 33.772,63.437l-55.222,10.496c-5.781,-29.512 -21.297,-44.268 -46.55,-44.268c-17.038,-0 -30.425,6.389 -40.161,19.168c-9.736,12.778 -14.604,31.185 -14.604,55.221c-0,24.036 4.792,42.443 14.375,55.222c9.584,12.778 23.048,19.168 40.39,19.168c27.078,-0 43.051,-17.038 47.919,-51.114Z" style="fill:#efd578;fill-rule:nonzero;"/><path d="M7632.93,1326.18l-0,-105.423l-37.423,-0l-0,-50.202l38.792,0l-0,-59.329l56.134,0l0,59.329l61.155,0l-0,50.202l-60.242,-0l-0,99.946c-0,13.083 2.206,22.135 6.617,27.155c4.412,5.02 13.007,7.53 25.786,7.53l19.624,0l-0,57.047l-25.101,0c-32.251,0 -54.613,-6.845 -67.087,-20.537c-12.17,-13.387 -18.255,-35.293 -18.255,-65.718Z" style="fill:none;fill-rule:nonzero;stroke:#000;stroke-width:3.75px;"/><path d="M7632.93,1326.18l-0,-105.423l-37.423,-0l-0,-50.202l38.792,0l-0,-59.329l56.134,0l0,59.329l61.155,0l-0,50.202l-60.242,-0l-0,99.946c-0,13.083 2.206,22.135 6.617,27.155c4.412,5.02 13.007,7.53 25.786,7.53l19.624,0l-0,57.047l-25.101,0c-32.251,0 -54.613,-6.845 -67.087,-20.537c-12.17,-13.387 -18.255,-35.293 -18.255,-65.718Z" style="fill:#efd578;fill-rule:nonzero;"/><path d="M7856.55,1412.43l-59.329,0l0,-241.88l59.329,0l0,241.88Zm0,-277.021l-59.329,0l0,-56.134l59.329,0l0,56.134Z" style="fill:none;fill-rule:nonzero;stroke:#000;stroke-width:3.75px;"/><path d="M7856.55,1412.43l-59.329,0l0,-241.88l59.329,0l0,241.88Zm0,-277.021l-59.329,0l0,-56.134l59.329,0l0,56.134Z" style="fill:#efd578;fill-rule:nonzero;"/><path d="M7977.49,1346.72c9.432,12.778 22.819,19.168 40.161,19.168c17.343,-0 30.73,-6.39 40.162,-19.168c9.736,-13.387 14.604,-31.794 14.604,-55.222c-0,-23.731 -5.02,-41.986 -15.061,-54.765c-9.432,-13.083 -22.667,-19.624 -39.705,-19.624c-16.733,-0 -30.12,6.389 -40.161,19.168c-9.736,13.083 -14.604,31.49 -14.604,55.221c0,23.732 4.868,42.139 14.604,55.222Zm-73.02,-55.222c-0,-39.552 10.953,-70.738 32.859,-93.557c21.906,-22.819 48.68,-34.228 80.322,-34.228c31.643,-0 58.417,11.409 80.323,34.228c21.906,22.819 32.859,54.005 32.859,93.557c-0,40.466 -10.649,71.804 -31.946,94.014c-21.602,22.515 -48.681,33.772 -81.236,33.772c-32.554,-0 -59.633,-11.257 -81.235,-33.772c-21.297,-22.21 -31.946,-53.548 -31.946,-94.014Z" style="fill:none;fill-rule:nonzero;stroke:#000;stroke-width:3.75px;"/><path d="M7977.49,1346.72c9.432,12.778 22.819,19.168 40.161,19.168c17.343,-0 30.73,-6.39 40.162,-19.168c9.736,-13.387 14.604,-31.794 14.604,-55.222c-0,-23.731 -5.02,-41.986 -15.061,-54.765c-9.432,-13.083 -22.667,-19.624 -39.705,-19.624c-16.733,-0 -30.12,6.389 -40.161,19.168c-9.736,13.083 -14.604,31.49 -14.604,55.221c0,23.732 4.868,42.139 14.604,55.222Zm-73.02,-55.222c-0,-39.552 10.953,-70.738 32.859,-93.557c21.906,-22.819 48.68,-34.228 80.322,-34.228c31.643,-0 58.417,11.409 80.323,34.228c21.906,22.819 32.859,54.005 32.859,93.557c-0,40.466 -10.649,71.804 -31.946,94.014c-21.602,22.515 -48.681,33.772 -81.236,33.772c-32.554,-0 -59.633,-11.257 -81.235,-33.772c-21.297,-22.21 -31.946,-53.548 -31.946,-94.014Z" style="fill:#efd578;fill-rule:nonzero;"/><path d="M8238.08,1412.43l-59.329,0l0,-241.88l57.048,0l-0,23.276l0.912,-0c6.694,-8.824 15.897,-16.05 27.611,-21.678c11.714,-5.629 23.808,-8.443 36.282,-8.443c26.774,-0 47.768,7.986 62.98,23.96c15.213,15.973 22.819,38.107 22.819,66.402l-0,158.363l-59.329,0l-0,-143.759c-0,-17.038 -3.271,-29.664 -9.812,-37.879c-6.542,-8.215 -17.418,-12.322 -32.631,-12.322c-14.604,0 -26.014,4.183 -34.228,12.55c-8.215,8.367 -12.323,19.549 -12.323,33.544l0,147.866Z" style="fill:none;fill-rule:nonzero;stroke:#000;stroke-width:3.75px;"/><path d="M8238.08,1412.43l-59.329,0l0,-241.88l57.048,0l-0,23.276l0.912,-0c6.694,-8.824 15.897,-16.05 27.611,-21.678c11.714,-5.629 23.808,-8.443 36.282,-8.443c26.774,-0 47.768,7.986 62.98,23.96c15.213,15.973 22.819,38.107 22.819,66.402l-0,158.363l-59.329,0l-0,-143.759c-0,-17.038 -3.271,-29.664 -9.812,-37.879c-6.542,-8.215 -17.418,-12.322 -32.631,-12.322c-14.604,0 -26.014,4.183 -34.228,12.55c-8.215,8.367 -12.323,19.549 -12.323,33.544l0,147.866Z" style="fill:#efd578;fill-rule:nonzero;"/></g></g></svg>