<?xml version="1.0" encoding="UTF-8" standalone="no"?><!DOCTYPE svg PUBLIC "-//W3C//DTD SVG 1.1//EN" "http://www.w3.org/Graphics/SVG/1.1/DTD/svg11.dtd"><svg width="100%" height="100%" viewBox="0 0 8538 4805" version="1.1" xmlns="http://www.w3.org/2000/svg" xmlns:xlink="http://www.w3.org/1999/xlink" xml:space="preserve" xmlns:serif="http://www.serif.com/" style="fill-rule:evenodd;clip-rule:evenodd;stroke-linecap:round;stroke-linejoin:round;stroke-miterlimit:1.5;"><rect id="YT_BANNER_agora-media-production" serif:id="YT_BANNER_agora media production" x="3.278" y="2.37" width="8533.33" height="4800" style="fill:none;"/><clipPath id="_clip1"><rect x="3.278" y="2.37" width="8533.33" height="4800"/></clipPath><g clip-path="url(#_clip1)"><rect x="3.278" y="2.37" width="8533.33" height="4800" style="fill:none;stroke:#000;stroke-width:31.25px;"/><rect x="3.278" y="2.37" width="8533.33" height="4800" style="fill:#efd578;"/><g id="AGORA-media-production" serif:id="AGORA media production"><g id="agora"><path d="M2812.15,2558.58l-111.65,0l0,-52.24l-2.048,0c-0,0.683 -1.537,3.244 -4.61,7.683c-3.073,4.438 -8.365,10.072 -15.877,16.901c-7.511,6.828 -16.559,13.316 -27.144,19.462c-10.584,6.146 -24.754,11.609 -42.509,16.389c-17.755,4.78 -36.875,7.17 -57.361,7.17c-62.825,-0 -111.138,-15.023 -144.941,-45.07c-33.802,-30.046 -50.703,-68.629 -50.703,-115.747c-0,-46.436 13.828,-82.116 41.484,-107.041c27.657,-24.925 75.287,-45.582 142.892,-61.971c64.19,-15.706 103.114,-27.656 116.772,-35.851c15.706,-9.56 23.559,-22.193 23.559,-37.9c-0,-17.071 -7.853,-30.9 -23.559,-41.484c-15.706,-10.585 -38.583,-15.877 -68.629,-15.877c-34.144,-0 -59.41,7.341 -75.799,22.023c-16.389,14.682 -29.364,37.046 -38.924,67.092l-110.626,-46.094c13.657,-47.118 39.607,-84.847 77.848,-113.186c38.241,-28.34 86.725,-42.509 145.452,-42.509c66.922,-0 121.211,17.413 162.866,52.239c42.338,34.827 63.507,88.774 63.507,161.842l0,344.169Zm-245.835,-222.276c-32.095,7.512 -53.947,16.731 -65.556,27.657c-11.609,10.926 -17.413,24.242 -17.413,39.948c-0,36.875 26.632,55.313 79.896,55.313c38.924,-0 68.8,-7.341 89.628,-22.023c20.827,-14.682 31.241,-33.973 31.241,-57.874l0,-94.236l-2.048,-0c-4.098,6.828 -7.171,11.267 -9.219,13.316c-10.243,10.243 -45.753,22.876 -106.529,37.899Z" style="fill:none;fill-rule:nonzero;stroke:#000;stroke-width:3.49px;stroke-miterlimit:2;"/><path d="M2812.15,2558.58l-111.65,0l0,-52.24l-2.048,0c-0,0.683 -1.537,3.244 -4.61,7.683c-3.073,4.438 -8.365,10.072 -15.877,16.901c-7.511,6.828 -16.559,13.316 -27.144,19.462c-10.584,6.146 -24.754,11.609 -42.509,16.389c-17.755,4.78 -36.875,7.17 -57.361,7.17c-62.825,-0 -111.138,-15.023 -144.941,-45.07c-33.802,-30.046 -50.703,-68.629 -50.703,-115.747c-0,-46.436 13.828,-82.116 41.484,-107.041c27.657,-24.925 75.287,-45.582 142.892,-61.971c64.19,-15.706 103.114,-27.656 116.772,-35.851c15.706,-9.56 23.559,-22.193 23.559,-37.9c-0,-17.071 -7.853,-30.9 -23.559,-41.484c-15.706,-10.585 -38.583,-15.877 -68.629,-15.877c-34.144,-0 -59.41,7.341 -75.799,22.023c-16.389,14.682 -29.364,37.046 -38.924,67.092l-110.626,-46.094c13.657,-47.118 39.607,-84.847 77.848,-113.186c38.241,-28.34 86.725,-42.509 145.452,-42.509c66.922,-0 121.211,17.413 162.866,52.239c42.338,34.827 63.507,88.774 63.507,161.842l0,344.169Zm-245.835,-222.276c-32.095,7.512 -53.947,16.731 -65.556,27.657c-11.609,10.926 -17.413,24.242 -17.413,39.948c-0,36.875 26.632,55.313 79.896,55.313c38.924,-0 68.8,-7.341 89.628,-22.023c20.827,-14.682 31.241,-33.973 31.241,-57.874l0,-94.236l-2.048,-0c-4.098,6.828 -7.171,11.267 -9.219,13.316c-10.243,10.243 -45.753,22.876 -106.529,37.899Z" style="fill-rule:nonzero;"/><path d="M3292.55,2342.45l0,-111.65c0,-31.412 -10.755,-57.703 -32.266,-78.872c-21.51,-21.169 -49.679,-31.754 -84.505,-31.754c-40.29,0 -72.556,14.682 -96.798,44.046c-24.242,29.363 -36.363,70.336 -36.363,122.917c-0,52.582 12.292,93.554 36.875,122.918c24.584,29.363 56.679,44.045 96.286,44.045c34.826,0 62.995,-10.584 84.505,-31.753c21.511,-21.17 32.266,-47.802 32.266,-79.897Zm-344.169,326.756l99.358,-68.629c16.389,31.412 34.486,53.947 54.289,67.605c19.803,13.657 45.07,20.486 75.799,20.486c76.482,-0 114.723,-37.9 114.723,-113.699l0,-68.629l-2.048,0c-10.244,19.121 -28.169,35.168 -53.777,48.143c-25.608,12.975 -52.752,19.462 -81.433,19.462c-69.653,-0 -128.039,-25.267 -175.157,-75.799c-47.119,-51.216 -70.678,-121.552 -70.678,-211.009c0,-87.408 24.242,-157.061 72.726,-208.96c47.802,-51.898 104.822,-77.847 171.061,-77.847c62.141,-0 109.943,22.534 143.403,67.604l2.049,0l0,-52.24l127.015,0l-0,542.886c-0,79.214 -23.218,139.99 -69.653,182.328c-46.436,42.338 -105.846,63.507 -178.231,63.507c-55.313,0 -102.773,-11.95 -142.379,-35.851c-39.607,-23.9 -68.629,-57.02 -87.067,-99.358Z" style="fill:none;fill-rule:nonzero;stroke:#000;stroke-width:3.49px;stroke-miterlimit:2;"/><path d="M3292.55,2342.45l0,-111.65c0,-31.412 -10.755,-57.703 -32.266,-78.872c-21.51,-21.169 -49.679,-31.754 -84.505,-31.754c-40.29,0 -72.556,14.682 -96.798,44.046c-24.242,29.363 -36.363,70.336 -36.363,122.917c-0,52.582 12.292,93.554 36.875,122.918c24.584,29.363 56.679,44.045 96.286,44.045c34.826,0 62.995,-10.584 84.505,-31.753c21.511,-21.17 32.266,-47.802 32.266,-79.897Zm-344.169,326.756l99.358,-68.629c16.389,31.412 34.486,53.947 54.289,67.605c19.803,13.657 45.07,20.486 75.799,20.486c76.482,-0 114.723,-37.9 114.723,-113.699l0,-68.629l-2.048,0c-10.244,19.121 -28.169,35.168 -53.777,48.143c-25.608,12.975 -52.752,19.462 -81.433,19.462c-69.653,-0 -128.039,-25.267 -175.157,-75.799c-47.119,-51.216 -70.678,-121.552 -70.678,-211.009c0,-87.408 24.242,-157.061 72.726,-208.96c47.802,-51.898 104.822,-77.847 171.061,-77.847c62.141,-0 109.943,22.534 143.403,67.604l2.049,0l0,-52.24l127.015,0l-0,542.886c-0,79.214 -23.218,139.99 -69.653,182.328c-46.436,42.338 -105.846,63.507 -178.231,63.507c-55.313,0 -102.773,-11.95 -142.379,-35.851c-39.607,-23.9 -68.629,-57.02 -87.067,-99.358Z" style="fill-rule:nonzero;"/><path d="M3692.03,2411.08c21.169,28.681 51.216,43.021 90.14,43.021c38.924,0 68.97,-14.34 90.139,-43.021c21.852,-30.046 32.778,-71.36 32.778,-123.942c0,-53.264 -11.267,-94.237 -33.802,-122.917c-21.169,-29.364 -50.874,-44.046 -89.115,-44.046c-37.558,0 -67.605,14.341 -90.14,43.021c-21.852,29.364 -32.778,70.678 -32.778,123.942c0,53.264 10.926,94.578 32.778,123.942Zm-163.89,-123.942c0,-88.774 24.584,-158.768 73.751,-209.984c49.167,-51.216 109.26,-76.823 180.279,-76.823c71.019,-0 131.112,25.607 180.279,76.823c49.167,51.216 73.751,121.21 73.751,209.984c-0,90.823 -23.901,161.159 -71.702,211.009c-48.485,50.532 -109.26,75.799 -182.328,75.799c-73.068,-0 -133.844,-25.267 -182.328,-75.799c-47.801,-49.85 -71.702,-120.186 -71.702,-211.009Z" style="fill:none;fill-rule:nonzero;stroke:#000;stroke-width:3.49px;stroke-miterlimit:2;"/><path d="M3692.03,2411.08c21.169,28.681 51.216,43.021 90.14,43.021c38.924,0 68.97,-14.34 90.139,-43.021c21.852,-30.046 32.778,-71.36 32.778,-123.942c0,-53.264 -11.267,-94.237 -33.802,-122.917c-21.169,-29.364 -50.874,-44.046 -89.115,-44.046c-37.558,0 -67.605,14.341 -90.14,43.021c-21.852,29.364 -32.778,70.678 -32.778,123.942c0,53.264 10.926,94.578 32.778,123.942Zm-163.89,-123.942c0,-88.774 24.584,-158.768 73.751,-209.984c49.167,-51.216 109.26,-76.823 180.279,-76.823c71.019,-0 131.112,25.607 180.279,76.823c49.167,51.216 73.751,121.21 73.751,209.984c-0,90.823 -23.901,161.159 -71.702,211.009c-48.485,50.532 -109.26,75.799 -182.328,75.799c-73.068,-0 -133.844,-25.267 -182.328,-75.799c-47.801,-49.85 -71.702,-120.186 -71.702,-211.009Z" style="fill-rule:nonzero;"/><path d="M4276.91,2558.58l-133.161,0l0,-542.886l125.991,0l-0,57.362l2.049,-0c10.243,-20.487 25.437,-36.876 45.581,-49.167c20.145,-12.292 42.168,-18.438 66.069,-18.438c18.437,0 34.826,3.414 49.167,10.243l-20.487,129.064c-16.389,-5.463 -30.388,-8.195 -41.996,-8.195c-62.142,0 -93.213,41.314 -93.213,123.942l0,298.075Z" style="fill:none;fill-rule:nonzero;stroke:#000;stroke-width:3.49px;stroke-miterlimit:2;"/><path d="M4276.91,2558.58l-133.161,0l0,-542.886l125.991,0l-0,57.362l2.049,-0c10.243,-20.487 25.437,-36.876 45.581,-49.167c20.145,-12.292 42.168,-18.438 66.069,-18.438c18.437,0 34.826,3.414 49.167,10.243l-20.487,129.064c-16.389,-5.463 -30.388,-8.195 -41.996,-8.195c-62.142,0 -93.213,41.314 -93.213,123.942l0,298.075Z" style="fill-rule:nonzero;"/><path d="M4940.67,2558.58l-111.65,0l-0,-52.24l-2.049,0c0,0.683 -1.536,3.244 -4.609,7.683c-3.073,4.438 -8.365,10.072 -15.877,16.901c-7.512,6.828 -16.56,13.316 -27.144,19.462c-10.585,6.146 -24.755,11.609 -42.509,16.389c-17.755,4.78 -36.876,7.17 -57.362,7.17c-62.824,-0 -111.138,-15.023 -144.94,-45.07c-33.803,-30.046 -50.704,-68.629 -50.704,-115.747c0,-46.436 13.829,-82.116 41.485,-107.041c27.656,-24.925 75.287,-45.582 142.892,-61.971c64.19,-15.706 103.114,-27.656 116.771,-35.851c15.706,-9.56 23.56,-22.193 23.56,-37.9c-0,-17.071 -7.854,-30.9 -23.56,-41.484c-15.706,-10.585 -38.582,-15.877 -68.629,-15.877c-34.143,-0 -59.41,7.341 -75.799,22.023c-16.389,14.682 -29.363,37.046 -38.924,67.092l-110.625,-46.094c13.657,-47.118 39.606,-84.847 77.847,-113.186c38.241,-28.34 86.725,-42.509 145.453,-42.509c66.922,-0 121.21,17.413 162.866,52.239c42.338,34.827 63.507,88.774 63.507,161.842l-0,344.169Zm-245.835,-222.276c-32.095,7.512 -53.947,16.731 -65.556,27.657c-11.609,10.926 -17.414,24.242 -17.414,39.948c0,36.875 26.633,55.313 79.897,55.313c38.924,-0 68.8,-7.341 89.627,-22.023c20.828,-14.682 31.242,-33.973 31.242,-57.874l-0,-94.236l-2.049,-0c-4.097,6.828 -7.17,11.267 -9.219,13.316c-10.243,10.243 -45.752,22.876 -106.528,37.899Z" style="fill:none;fill-rule:nonzero;stroke:#000;stroke-width:3.49px;stroke-miterlimit:2;"/><path d="M4940.67,2558.58l-111.65,0l-0,-52.24l-2.049,0c0,0.683 -1.536,3.244 -4.609,7.683c-3.073,4.438 -8.365,10.072 -15.877,16.901c-7.512,6.828 -16.56,13.316 -27.144,19.462c-10.585,6.146 -24.755,11.609 -42.509,16.389c-17.755,4.78 -36.876,7.17 -57.362,7.17c-62.824,-0 -111.138,-15.023 -144.94,-45.07c-33.803,-30.046 -50.704,-68.629 -50.704,-115.747c0,-46.436 13.829,-82.116 41.485,-107.041c27.656,-24.925 75.287,-45.582 142.892,-61.971c64.19,-15.706 103.114,-27.656 116.771,-35.851c15.706,-9.56 23.56,-22.193 23.56,-37.9c-0,-17.071 -7.854,-30.9 -23.56,-41.484c-15.706,-10.585 -38.582,-15.877 -68.629,-15.877c-34.143,-0 -59.41,7.341 -75.799,22.023c-16.389,14.682 -29.363,37.046 -38.924,67.092l-110.625,-46.094c13.657,-47.118 39.606,-84.847 77.847,-113.186c38.241,-28.34 86.725,-42.509 145.453,-42.509c66.922,-0 121.21,17.413 162.866,52.239c42.338,34.827 63.507,88.774 63.507,161.842l-0,344.169Zm-245.835,-222.276c-32.095,7.512 -53.947,16.731 -65.556,27.657c-11.609,10.926 -17.414,24.242 -17.414,39.948c0,36.875 26.633,55.313 79.897,55.313c38.924,-0 68.8,-7.341 89.627,-22.023c20.828,-14.682 31.242,-33.973 31.242,-57.874l-0,-94.236l-2.049,-0c-4.097,6.828 -7.17,11.267 -9.219,13.316c-10.243,10.243 -45.752,22.876 -106.528,37.899Z" style="fill-rule:nonzero;"/><path d="M2355.3,2769.89l-0,-143.457l228.507,0.342l228.336,0.512l0,141.75l-228.336,0.512l-228.507,0.341Z" style="fill:none;stroke:#000;stroke-width:7.5px;stroke-linecap:butt;stroke-miterlimit:2;"/><path d="M2355.3,2769.89l-0,-143.457l228.507,0.342l228.336,0.512l0,141.75l-228.336,0.512l-228.507,0.341Z"/></g><g id="media"><path d="M5167.53,2355.32l-26.731,0l-0,-112.44l25.246,-0l-0,10.819l0.424,0c2.687,-4.101 6.471,-7.46 11.35,-10.077c4.88,-2.616 10.148,-3.925 15.806,-3.925c5.94,0 11.527,1.379 16.76,4.137c5.233,2.758 9.193,6.33 11.88,10.714l0.424,0c2.971,-4.384 7.072,-7.956 12.305,-10.714c5.233,-2.758 10.891,-4.137 16.972,-4.137c13.437,0 24.08,3.536 31.929,10.608c7.85,7.072 11.775,16.406 11.775,28.004l-0,77.011l-25.246,0l-0,-71.283c-0,-5.799 -1.627,-10.395 -4.88,-13.79c-3.253,-3.394 -8.132,-5.091 -14.638,-5.091c-6.082,-0 -10.82,1.591 -14.214,4.773c-3.395,3.182 -5.092,7.39 -5.092,12.623l-0,72.768l-25.246,0l-0,-71.283c-0,-5.516 -1.733,-10.042 -5.198,-13.577c-3.465,-3.536 -8.239,-5.304 -14.32,-5.304c-6.223,-0 -10.997,1.591 -14.321,4.773c-3.323,3.182 -4.985,7.39 -4.985,12.623l-0,72.768Z" style="fill:none;fill-rule:nonzero;stroke:#000;stroke-width:1.74px;stroke-miterlimit:2;"/><path d="M5167.53,2355.32l-26.731,0l-0,-112.44l25.246,-0l-0,10.819l0.424,0c2.687,-4.101 6.471,-7.46 11.35,-10.077c4.88,-2.616 10.148,-3.925 15.806,-3.925c5.94,0 11.527,1.379 16.76,4.137c5.233,2.758 9.193,6.33 11.88,10.714l0.424,0c2.971,-4.384 7.072,-7.956 12.305,-10.714c5.233,-2.758 10.891,-4.137 16.972,-4.137c13.437,0 24.08,3.536 31.929,10.608c7.85,7.072 11.775,16.406 11.775,28.004l-0,77.011l-25.246,0l-0,-71.283c-0,-5.799 -1.627,-10.395 -4.88,-13.79c-3.253,-3.394 -8.132,-5.091 -14.638,-5.091c-6.082,-0 -10.82,1.591 -14.214,4.773c-3.395,3.182 -5.092,7.39 -5.092,12.623l-0,72.768l-25.246,0l-0,-71.283c-0,-5.516 -1.733,-10.042 -5.198,-13.577c-3.465,-3.536 -8.239,-5.304 -14.32,-5.304c-6.223,-0 -10.997,1.591 -14.321,4.773c-3.323,3.182 -4.985,7.39 -4.985,12.623l-0,72.768Z" style="fill-rule:nonzero;"/><path d="M5397.29,2316.5l19.306,16.972c-11.457,16.689 -26.944,25.034 -46.462,25.034c-15.699,-0 -28.499,-5.375 -38.399,-16.124c-9.901,-10.749 -14.851,-25.175 -14.851,-43.279c0,-17.962 4.88,-32.318 14.639,-43.067c10.041,-10.89 22.488,-16.336 37.338,-16.336c14.992,0 27.297,5.446 36.915,16.336c9.759,10.749 14.638,25.105 14.638,43.067l0,8.274l-75.526,0c0.424,8.628 2.794,15.24 7.107,19.836c4.314,4.597 10.219,6.895 17.715,6.895c5.94,0 10.997,-1.45 15.169,-4.349c4.172,-2.899 8.309,-7.319 12.411,-13.259Zm-52.402,-29.702l48.795,0c-0.707,-7.213 -3.217,-12.835 -7.531,-16.866c-4.314,-4.031 -10.077,-6.046 -17.291,-6.046c-6.647,-0 -12.163,2.157 -16.548,6.47c-4.384,4.314 -6.859,9.795 -7.425,16.442Z" style="fill:none;fill-rule:nonzero;stroke:#000;stroke-width:1.74px;stroke-miterlimit:2;"/><path d="M5397.29,2316.5l19.306,16.972c-11.457,16.689 -26.944,25.034 -46.462,25.034c-15.699,-0 -28.499,-5.375 -38.399,-16.124c-9.901,-10.749 -14.851,-25.175 -14.851,-43.279c0,-17.962 4.88,-32.318 14.639,-43.067c10.041,-10.89 22.488,-16.336 37.338,-16.336c14.992,0 27.297,5.446 36.915,16.336c9.759,10.749 14.638,25.105 14.638,43.067l0,8.274l-75.526,0c0.424,8.628 2.794,15.24 7.107,19.836c4.314,4.597 10.219,6.895 17.715,6.895c5.94,0 10.997,-1.45 15.169,-4.349c4.172,-2.899 8.309,-7.319 12.411,-13.259Zm-52.402,-29.702l48.795,0c-0.707,-7.213 -3.217,-12.835 -7.531,-16.866c-4.314,-4.031 -10.077,-6.046 -17.291,-6.046c-6.647,-0 -12.163,2.157 -16.548,6.47c-4.384,4.314 -6.859,9.795 -7.425,16.442Z" style="fill-rule:nonzero;"/><path d="M5512.49,2309.29l0,-20.578c0,-6.931 -2.192,-12.694 -6.576,-17.291c-4.385,-4.596 -10.254,-6.895 -17.609,-6.895c-8.203,0 -14.497,2.935 -18.881,8.805c-4.385,5.869 -6.577,14.461 -6.577,25.776c-0,11.315 2.192,19.907 6.577,25.777c4.384,5.869 10.678,8.804 18.881,8.804c7.355,-0 13.224,-2.334 17.609,-7.001c4.384,-4.667 6.576,-10.466 6.576,-17.397Zm27.58,46.037l-25.882,0l-0,-10.819l-0.425,-0c-0.707,0.99 -1.768,2.263 -3.182,3.818c-1.273,1.556 -4.526,3.678 -9.759,6.365c-5.092,2.546 -10.678,3.819 -16.76,3.819c-14.851,-0 -26.731,-5.375 -35.642,-16.124c-8.768,-10.89 -13.153,-25.317 -13.153,-43.279c0,-18.104 4.809,-32.53 14.426,-43.279c9.477,-10.749 20.791,-16.124 33.945,-16.124c5.516,0 10.678,1.097 15.487,3.289c4.809,2.192 8.203,4.561 10.183,7.107l2.758,3.606l0.424,0l0,-53.25l27.58,0l0,154.871Z" style="fill:none;fill-rule:nonzero;stroke:#000;stroke-width:1.74px;stroke-miterlimit:2;"/><path d="M5512.49,2309.29l0,-20.578c0,-6.931 -2.192,-12.694 -6.576,-17.291c-4.385,-4.596 -10.254,-6.895 -17.609,-6.895c-8.203,0 -14.497,2.935 -18.881,8.805c-4.385,5.869 -6.577,14.461 -6.577,25.776c-0,11.315 2.192,19.907 6.577,25.777c4.384,5.869 10.678,8.804 18.881,8.804c7.355,-0 13.224,-2.334 17.609,-7.001c4.384,-4.667 6.576,-10.466 6.576,-17.397Zm27.58,46.037l-25.882,0l-0,-10.819l-0.425,-0c-0.707,0.99 -1.768,2.263 -3.182,3.818c-1.273,1.556 -4.526,3.678 -9.759,6.365c-5.092,2.546 -10.678,3.819 -16.76,3.819c-14.851,-0 -26.731,-5.375 -35.642,-16.124c-8.768,-10.89 -13.153,-25.317 -13.153,-43.279c0,-18.104 4.809,-32.53 14.426,-43.279c9.477,-10.749 20.791,-16.124 33.945,-16.124c5.516,0 10.678,1.097 15.487,3.289c4.809,2.192 8.203,4.561 10.183,7.107l2.758,3.606l0.424,0l0,-53.25l27.58,0l0,154.871Z" style="fill-rule:nonzero;"/><path d="M5597.35,2355.32l-27.579,0l-0,-112.44l27.579,-0l0,112.44Zm0,-128.776l-27.579,-0l-0,-26.095l27.579,0l0,26.095Z" style="fill:none;fill-rule:nonzero;stroke:#000;stroke-width:1.74px;stroke-miterlimit:2;"/><path d="M5597.35,2355.32l-27.579,0l-0,-112.44l27.579,-0l0,112.44Zm0,-128.776l-27.579,-0l-0,-26.095l27.579,0l0,26.095Z" style="fill-rule:nonzero;"/><path d="M5714.24,2355.32l-23.124,0l-0,-10.819l-0.425,-0c0,0.141 -0.318,0.671 -0.954,1.591c-0.637,0.919 -1.733,2.086 -3.289,3.5c-1.555,1.415 -3.43,2.758 -5.622,4.031c-2.192,1.273 -5.127,2.405 -8.804,3.395c-3.677,0.99 -7.638,1.485 -11.881,1.485c-13.012,-0 -23.018,-3.112 -30.019,-9.335c-7.001,-6.223 -10.502,-14.214 -10.502,-23.973c0,-9.618 2.864,-17.008 8.592,-22.17c5.729,-5.162 15.594,-9.441 29.596,-12.835c13.295,-3.253 21.356,-5.728 24.185,-7.426c3.253,-1.98 4.88,-4.596 4.88,-7.849c-0,-3.536 -1.627,-6.4 -4.88,-8.592c-3.253,-2.193 -7.991,-3.289 -14.214,-3.289c-7.072,0 -12.305,1.521 -15.699,4.561c-3.395,3.041 -6.082,7.673 -8.062,13.896l-22.913,-9.546c2.829,-9.759 8.204,-17.574 16.124,-23.443c7.92,-5.87 17.962,-8.805 30.126,-8.805c13.86,0 25.104,3.607 33.732,10.82c8.769,7.213 13.153,18.387 13.153,33.52l0,71.283Zm-50.916,-46.037c-6.648,1.556 -11.174,3.466 -13.578,5.728c-2.404,2.263 -3.607,5.021 -3.607,8.274c0,7.638 5.516,11.457 16.548,11.457c8.062,-0 14.25,-1.521 18.564,-4.562c4.313,-3.04 6.47,-7.036 6.47,-11.986l0,-19.518l-0.424,-0c-0.849,1.414 -1.485,2.333 -1.909,2.758c-2.122,2.121 -9.477,4.738 -22.064,7.849Z" style="fill:none;fill-rule:nonzero;stroke:#000;stroke-width:1.74px;stroke-miterlimit:2;"/><path d="M5714.24,2355.32l-23.124,0l-0,-10.819l-0.425,-0c0,0.141 -0.318,0.671 -0.954,1.591c-0.637,0.919 -1.733,2.086 -3.289,3.5c-1.555,1.415 -3.43,2.758 -5.622,4.031c-2.192,1.273 -5.127,2.405 -8.804,3.395c-3.677,0.99 -7.638,1.485 -11.881,1.485c-13.012,-0 -23.018,-3.112 -30.019,-9.335c-7.001,-6.223 -10.502,-14.214 -10.502,-23.973c0,-9.618 2.864,-17.008 8.592,-22.17c5.729,-5.162 15.594,-9.441 29.596,-12.835c13.295,-3.253 21.356,-5.728 24.185,-7.426c3.253,-1.98 4.88,-4.596 4.88,-7.849c-0,-3.536 -1.627,-6.4 -4.88,-8.592c-3.253,-2.193 -7.991,-3.289 -14.214,-3.289c-7.072,0 -12.305,1.521 -15.699,4.561c-3.395,3.041 -6.082,7.673 -8.062,13.896l-22.913,-9.546c2.829,-9.759 8.204,-17.574 16.124,-23.443c7.92,-5.87 17.962,-8.805 30.126,-8.805c13.86,0 25.104,3.607 33.732,10.82c8.769,7.213 13.153,18.387 13.153,33.52l0,71.283Zm-50.916,-46.037c-6.648,1.556 -11.174,3.466 -13.578,5.728c-2.404,2.263 -3.607,5.021 -3.607,8.274c0,7.638 5.516,11.457 16.548,11.457c8.062,-0 14.25,-1.521 18.564,-4.562c4.313,-3.04 6.47,-7.036 6.47,-11.986l0,-19.518l-0.424,-0c-0.849,1.414 -1.485,2.333 -1.909,2.758c-2.122,2.121 -9.477,4.738 -22.064,7.849Z" style="fill-rule:nonzero;"/></g><g id="production"><path d="M5168.38,2485.08l0,23.124c0,6.648 2.228,12.164 6.683,16.548c4.455,4.385 10.29,6.577 17.503,6.577c8.203,-0 14.851,-3.041 19.942,-9.123c5.092,-6.081 7.638,-14.567 7.638,-25.458c-0,-10.89 -2.511,-19.376 -7.532,-25.458c-5.021,-6.082 -11.703,-9.123 -20.048,-9.123c-7.213,0 -13.048,2.193 -17.503,6.577c-4.455,4.385 -6.683,9.83 -6.683,16.336Zm0,115.623l-27.579,-0l-0,-160.175l26.307,-0l-0,10.82l0.424,-0c-0,-0.425 0.919,-1.662 2.758,-3.713c1.839,-2.051 5.268,-4.278 10.289,-6.683c5.021,-2.404 10.785,-3.606 17.291,-3.606c13.295,-0 24.892,5.374 34.793,16.123c10.042,10.749 15.062,25.176 15.062,43.279c0,18.245 -4.808,32.742 -14.426,43.491c-9.617,10.608 -21.286,15.912 -35.005,15.912c-7.355,-0 -13.472,-1.379 -18.351,-4.137c-4.88,-2.758 -8.309,-5.551 -10.29,-8.38l-0.848,-1.485l-0.425,-0l0,58.554Z" style="fill:none;fill-rule:nonzero;stroke:#000;stroke-width:1.74px;stroke-miterlimit:2;"/><path d="M5168.38,2485.08l0,23.124c0,6.648 2.228,12.164 6.683,16.548c4.455,4.385 10.29,6.577 17.503,6.577c8.203,-0 14.851,-3.041 19.942,-9.123c5.092,-6.081 7.638,-14.567 7.638,-25.458c-0,-10.89 -2.511,-19.376 -7.532,-25.458c-5.021,-6.082 -11.703,-9.123 -20.048,-9.123c-7.213,0 -13.048,2.193 -17.503,6.577c-4.455,4.385 -6.683,9.83 -6.683,16.336Zm0,115.623l-27.579,-0l-0,-160.175l26.307,-0l-0,10.82l0.424,-0c-0,-0.425 0.919,-1.662 2.758,-3.713c1.839,-2.051 5.268,-4.278 10.289,-6.683c5.021,-2.404 10.785,-3.606 17.291,-3.606c13.295,-0 24.892,5.374 34.793,16.123c10.042,10.749 15.062,25.176 15.062,43.279c0,18.245 -4.808,32.742 -14.426,43.491c-9.617,10.608 -21.286,15.912 -35.005,15.912c-7.355,-0 -13.472,-1.379 -18.351,-4.137c-4.88,-2.758 -8.309,-5.551 -10.29,-8.38l-0.848,-1.485l-0.425,-0l0,58.554Z" style="fill-rule:nonzero;"/><path d="M5297.58,2552.97l-27.58,-0l0,-112.441l26.095,-0l0,11.88l0.424,0c2.122,-4.243 5.269,-7.637 9.441,-10.183c4.173,-2.546 8.734,-3.819 13.684,-3.819c3.819,0 7.213,0.707 10.183,2.122l-4.243,26.731c-3.394,-1.131 -6.294,-1.697 -8.698,-1.697c-12.87,-0 -19.306,8.557 -19.306,25.67l0,61.737Z" style="fill:none;fill-rule:nonzero;stroke:#000;stroke-width:1.74px;stroke-miterlimit:2;"/><path d="M5297.58,2552.97l-27.58,-0l0,-112.441l26.095,-0l0,11.88l0.424,0c2.122,-4.243 5.269,-7.637 9.441,-10.183c4.173,-2.546 8.734,-3.819 13.684,-3.819c3.819,0 7.213,0.707 10.183,2.122l-4.243,26.731c-3.394,-1.131 -6.294,-1.697 -8.698,-1.697c-12.87,-0 -19.306,8.557 -19.306,25.67l0,61.737Z" style="fill-rule:nonzero;"/><path d="M5370.13,2522.42c4.385,5.94 10.608,8.91 18.67,8.91c8.061,-0 14.285,-2.97 18.669,-8.91c4.526,-6.224 6.789,-14.78 6.789,-25.671c-0,-11.032 -2.334,-19.518 -7.001,-25.458c-4.385,-6.082 -10.537,-9.123 -18.457,-9.123c-7.779,0 -14.002,2.97 -18.67,8.911c-4.526,6.081 -6.789,14.638 -6.789,25.67c0,11.032 2.263,19.589 6.789,25.671Zm-33.944,-25.671c-0,-18.386 5.092,-32.883 15.275,-43.491c10.183,-10.608 22.629,-15.911 37.339,-15.911c14.709,-0 27.155,5.303 37.338,15.911c10.184,10.608 15.275,25.105 15.275,43.491c0,18.811 -4.95,33.379 -14.85,43.704c-10.042,10.466 -22.63,15.699 -37.763,15.699c-15.134,-0 -27.722,-5.233 -37.763,-15.699c-9.901,-10.325 -14.851,-24.893 -14.851,-43.704Z" style="fill:none;fill-rule:nonzero;stroke:#000;stroke-width:1.74px;stroke-miterlimit:2;"/><path d="M5370.13,2522.42c4.385,5.94 10.608,8.91 18.67,8.91c8.061,-0 14.285,-2.97 18.669,-8.91c4.526,-6.224 6.789,-14.78 6.789,-25.671c-0,-11.032 -2.334,-19.518 -7.001,-25.458c-4.385,-6.082 -10.537,-9.123 -18.457,-9.123c-7.779,0 -14.002,2.97 -18.67,8.911c-4.526,6.081 -6.789,14.638 -6.789,25.67c0,11.032 2.263,19.589 6.789,25.671Zm-33.944,-25.671c-0,-18.386 5.092,-32.883 15.275,-43.491c10.183,-10.608 22.629,-15.911 37.339,-15.911c14.709,-0 27.155,5.303 37.338,15.911c10.184,10.608 15.275,25.105 15.275,43.491c0,18.811 -4.95,33.379 -14.85,43.704c-10.042,10.466 -22.63,15.699 -37.763,15.699c-15.134,-0 -27.722,-5.233 -37.763,-15.699c-9.901,-10.325 -14.851,-24.893 -14.851,-43.704Z" style="fill-rule:nonzero;"/><path d="M5533.49,2506.93l-0,-20.578c-0,-6.931 -2.193,-12.694 -6.577,-17.291c-4.385,-4.596 -10.254,-6.895 -17.609,-6.895c-8.203,0 -14.497,2.935 -18.881,8.805c-4.385,5.869 -6.577,14.461 -6.577,25.776c-0,11.315 2.192,19.907 6.577,25.777c4.384,5.869 10.678,8.804 18.881,8.804c7.355,-0 13.224,-2.334 17.609,-7.001c4.384,-4.667 6.577,-10.466 6.577,-17.397Zm27.579,46.038l-25.882,-0l-0,-10.82l-0.425,-0c-0.707,0.99 -1.768,2.263 -3.182,3.819c-1.273,1.555 -4.526,3.677 -9.759,6.364c-5.092,2.546 -10.678,3.819 -16.76,3.819c-14.851,-0 -26.731,-5.375 -35.641,-16.124c-8.769,-10.89 -13.154,-25.317 -13.154,-43.279c0,-18.103 4.809,-32.53 14.426,-43.279c9.477,-10.749 20.791,-16.123 33.945,-16.123c5.516,-0 10.678,1.096 15.487,3.288c4.809,2.192 8.203,4.561 10.183,7.107l2.758,3.607l0.425,-0l-0,-53.251l27.579,0l0,154.872Z" style="fill:none;fill-rule:nonzero;stroke:#000;stroke-width:1.74px;stroke-miterlimit:2;"/><path d="M5533.49,2506.93l-0,-20.578c-0,-6.931 -2.193,-12.694 -6.577,-17.291c-4.385,-4.596 -10.254,-6.895 -17.609,-6.895c-8.203,0 -14.497,2.935 -18.881,8.805c-4.385,5.869 -6.577,14.461 -6.577,25.776c-0,11.315 2.192,19.907 6.577,25.777c4.384,5.869 10.678,8.804 18.881,8.804c7.355,-0 13.224,-2.334 17.609,-7.001c4.384,-4.667 6.577,-10.466 6.577,-17.397Zm27.579,46.038l-25.882,-0l-0,-10.82l-0.425,-0c-0.707,0.99 -1.768,2.263 -3.182,3.819c-1.273,1.555 -4.526,3.677 -9.759,6.364c-5.092,2.546 -10.678,3.819 -16.76,3.819c-14.851,-0 -26.731,-5.375 -35.641,-16.124c-8.769,-10.89 -13.154,-25.317 -13.154,-43.279c0,-18.103 4.809,-32.53 14.426,-43.279c9.477,-10.749 20.791,-16.123 33.945,-16.123c5.516,-0 10.678,1.096 15.487,3.288c4.809,2.192 8.203,4.561 10.183,7.107l2.758,3.607l0.425,-0l-0,-53.251l27.579,0l0,154.872Z" style="fill-rule:nonzero;"/><path d="M5589.71,2513.09l-0,-72.556l27.58,-0l-0,69.586c-0,7.072 1.343,12.092 4.031,15.063c2.687,2.97 7.001,4.455 12.941,4.455c6.93,-0 12.375,-1.768 16.336,-5.304c3.96,-3.536 5.94,-8.981 5.94,-16.336l-0,-67.464l27.58,-0l-0,112.441l-26.307,-0l-0,-10.82l-0.425,-0c-7.071,9.334 -16.83,14.002 -29.277,14.002c-12.729,-0 -22.311,-3.784 -28.746,-11.35c-6.435,-7.567 -9.653,-18.139 -9.653,-31.717Z" style="fill:none;fill-rule:nonzero;stroke:#000;stroke-width:1.74px;stroke-miterlimit:2;"/><path d="M5589.71,2513.09l-0,-72.556l27.58,-0l-0,69.586c-0,7.072 1.343,12.092 4.031,15.063c2.687,2.97 7.001,4.455 12.941,4.455c6.93,-0 12.375,-1.768 16.336,-5.304c3.96,-3.536 5.94,-8.981 5.94,-16.336l-0,-67.464l27.58,-0l-0,112.441l-26.307,-0l-0,-10.82l-0.425,-0c-7.071,9.334 -16.83,14.002 -29.277,14.002c-12.729,-0 -22.311,-3.784 -28.746,-11.35c-6.435,-7.567 -9.653,-18.139 -9.653,-31.717Z" style="fill-rule:nonzero;"/><path d="M5781.28,2507.57l26.095,6.789c-2.546,13.436 -8.062,23.761 -16.548,30.974c-8.486,7.213 -19.164,10.82 -32.035,10.82c-15.133,-0 -27.721,-5.233 -37.763,-15.699c-9.759,-10.325 -14.638,-24.893 -14.638,-43.704c-0,-18.528 5.021,-33.025 15.062,-43.491c10.184,-10.608 22.701,-15.911 37.551,-15.911c12.588,-0 23.125,3.677 31.611,11.031c8.486,7.355 13.719,17.185 15.699,29.49l-25.67,4.879c-2.687,-13.719 -9.901,-20.579 -21.64,-20.579c-7.92,0 -14.143,2.97 -18.669,8.911c-4.526,5.94 -6.789,14.497 -6.789,25.67c0,11.174 2.228,19.73 6.683,25.671c4.455,5.94 10.714,8.91 18.775,8.91c12.588,-0 20.013,-7.92 22.276,-23.761Z" style="fill:none;fill-rule:nonzero;stroke:#000;stroke-width:1.74px;stroke-miterlimit:2;"/><path d="M5781.28,2507.57l26.095,6.789c-2.546,13.436 -8.062,23.761 -16.548,30.974c-8.486,7.213 -19.164,10.82 -32.035,10.82c-15.133,-0 -27.721,-5.233 -37.763,-15.699c-9.759,-10.325 -14.638,-24.893 -14.638,-43.704c-0,-18.528 5.021,-33.025 15.062,-43.491c10.184,-10.608 22.701,-15.911 37.551,-15.911c12.588,-0 23.125,3.677 31.611,11.031c8.486,7.355 13.719,17.185 15.699,29.49l-25.67,4.879c-2.687,-13.719 -9.901,-20.579 -21.64,-20.579c-7.92,0 -14.143,2.97 -18.669,8.911c-4.526,5.94 -6.789,14.497 -6.789,25.67c0,11.174 2.228,19.73 6.683,25.671c4.455,5.94 10.714,8.91 18.775,8.91c12.588,-0 20.013,-7.92 22.276,-23.761Z" style="fill-rule:nonzero;"/><path d="M5834.32,2512.87l0,-49.007l-17.396,-0l-0,-23.337l18.033,-0l-0,-27.58l26.095,0l-0,27.58l28.428,-0l-0,23.337l-28.004,-0l-0,46.461c-0,6.082 1.025,10.289 3.076,12.623c2.051,2.334 6.046,3.5 11.987,3.5l9.122,0l0,26.52l-11.668,-0c-14.992,-0 -25.388,-3.183 -31.187,-9.547c-5.657,-6.223 -8.486,-16.407 -8.486,-30.55Z" style="fill:none;fill-rule:nonzero;stroke:#000;stroke-width:1.74px;stroke-miterlimit:2;"/><path d="M5834.32,2512.87l0,-49.007l-17.396,-0l-0,-23.337l18.033,-0l-0,-27.58l26.095,0l-0,27.58l28.428,-0l-0,23.337l-28.004,-0l-0,46.461c-0,6.082 1.025,10.289 3.076,12.623c2.051,2.334 6.046,3.5 11.987,3.5l9.122,0l0,26.52l-11.668,-0c-14.992,-0 -25.388,-3.183 -31.187,-9.547c-5.657,-6.223 -8.486,-16.407 -8.486,-30.55Z" style="fill-rule:nonzero;"/><path d="M5938.28,2552.97l-27.58,-0l0,-112.441l27.58,-0l0,112.441Zm0,-128.777l-27.58,0l0,-26.095l27.58,0l0,26.095Z" style="fill:none;fill-rule:nonzero;stroke:#000;stroke-width:1.74px;stroke-miterlimit:2;"/><path d="M5938.28,2552.97l-27.58,-0l0,-112.441l27.58,-0l0,112.441Zm0,-128.777l-27.58,0l0,-26.095l27.58,0l0,26.095Z" style="fill-rule:nonzero;"/><path d="M5994.5,2522.42c4.385,5.94 10.608,8.91 18.67,8.91c8.062,-0 14.285,-2.97 18.669,-8.91c4.526,-6.224 6.789,-14.78 6.789,-25.671c0,-11.032 -2.334,-19.518 -7.001,-25.458c-4.384,-6.082 -10.537,-9.123 -18.457,-9.123c-7.779,0 -14.002,2.97 -18.67,8.911c-4.526,6.081 -6.789,14.638 -6.789,25.67c0,11.032 2.263,19.589 6.789,25.671Zm-33.944,-25.671c-0,-18.386 5.092,-32.883 15.275,-43.491c10.183,-10.608 22.63,-15.911 37.339,-15.911c14.709,-0 27.155,5.303 37.339,15.911c10.183,10.608 15.275,25.105 15.275,43.491c-0,18.811 -4.951,33.379 -14.851,43.704c-10.042,10.466 -22.63,15.699 -37.763,15.699c-15.134,-0 -27.721,-5.233 -37.763,-15.699c-9.901,-10.325 -14.851,-24.893 -14.851,-43.704Z" style="fill:none;fill-rule:nonzero;stroke:#000;stroke-width:1.74px;stroke-miterlimit:2;"/><path d="M5994.5,2522.42c4.385,5.94 10.608,8.91 18.67,8.91c8.062,-0 14.285,-2.97 18.669,-8.91c4.526,-6.224 6.789,-14.78 6.789,-25.671c0,-11.032 -2.334,-19.518 -7.001,-25.458c-4.384,-6.082 -10.537,-9.123 -18.457,-9.123c-7.779,0 -14.002,2.97 -18.67,8.911c-4.526,6.081 -6.789,14.638 -6.789,25.67c0,11.032 2.263,19.589 6.789,25.671Zm-33.944,-25.671c-0,-18.386 5.092,-32.883 15.275,-43.491c10.183,-10.608 22.63,-15.911 37.339,-15.911c14.709,-0 27.155,5.303 37.339,15.911c10.183,10.608 15.275,25.105 15.275,43.491c-0,18.811 -4.951,33.379 -14.851,43.704c-10.042,10.466 -22.63,15.699 -37.763,15.699c-15.134,-0 -27.721,-5.233 -37.763,-15.699c-9.901,-10.325 -14.851,-24.893 -14.851,-43.704Z" style="fill-rule:nonzero;"/><path d="M6115.64,2552.97l-27.58,-0l0,-112.441l26.52,-0l-0,10.82l0.424,-0c3.111,-4.102 7.39,-7.461 12.835,-10.078c5.445,-2.616 11.067,-3.924 16.866,-3.924c12.446,-0 22.205,3.712 29.277,11.138c7.072,7.425 10.608,17.714 10.608,30.868l-0,73.617l-27.58,-0l-0,-66.828c-0,-7.921 -1.52,-13.79 -4.561,-17.609c-3.041,-3.819 -8.097,-5.728 -15.169,-5.728c-6.789,-0 -12.093,1.945 -15.912,5.834c-3.818,3.889 -5.728,9.087 -5.728,15.593l0,68.738Z" style="fill:none;fill-rule:nonzero;stroke:#000;stroke-width:1.74px;stroke-miterlimit:2;"/><path d="M6115.64,2552.97l-27.58,-0l0,-112.441l26.52,-0l-0,10.82l0.424,-0c3.111,-4.102 7.39,-7.461 12.835,-10.078c5.445,-2.616 11.067,-3.924 16.866,-3.924c12.446,-0 22.205,3.712 29.277,11.138c7.072,7.425 10.608,17.714 10.608,30.868l-0,73.617l-27.58,-0l-0,-66.828c-0,-7.921 -1.52,-13.79 -4.561,-17.609c-3.041,-3.819 -8.097,-5.728 -15.169,-5.728c-6.789,-0 -12.093,1.945 -15.912,5.834c-3.818,3.889 -5.728,9.087 -5.728,15.593l0,68.738Z" style="fill-rule:nonzero;"/></g></g></g></svg>