<?xml version="1.0" encoding="UTF-8" standalone="no"?>
<!DOCTYPE svg PUBLIC "-//W3C//DTD SVG 1.1//EN" "http://www.w3.org/Graphics/SVG/1.1/DTD/svg11.dtd">
<svg width="100%" height="100%" viewBox="0 0 1163 707" version="1.1" xmlns="http://www.w3.org/2000/svg" xmlns:xlink="http://www.w3.org/1999/xlink" xml:space="preserve" xmlns:serif="http://www.serif.com/" style="fill-rule:evenodd;clip-rule:evenodd;stroke-linecap:round;stroke-linejoin:round;stroke-miterlimit:2;">
    <g transform="matrix(1,0,0,1,-7662,-4721)">
        <g id="a---agora-media-production--yellow-" serif:id="a + agora media production (yellow)" transform="matrix(1,0,0,1,7662.54,4721.07)">
            <rect x="0" y="0" width="1162" height="706" style="fill:none;"/>
            <g id="agora-media-production--yellow-" serif:id="agora media production (yellow)" transform="matrix(1.17661,0,0,1.17661,-151.357,-472.218)">
                <g id="agora">
                    <path d="M645.522,616.22L634.683,616.22L634.683,611.149L634.484,611.149C634.484,611.215 634.335,611.464 634.037,611.895C633.739,612.325 633.225,612.872 632.496,613.535C631.766,614.198 630.888,614.828 629.86,615.425C628.833,616.021 627.457,616.552 625.734,617.016C624.01,617.48 622.154,617.712 620.165,617.712C614.066,617.712 609.376,616.253 606.095,613.336C602.813,610.42 601.173,606.674 601.173,602.1C601.173,597.592 602.515,594.128 605.2,591.709C607.885,589.289 612.509,587.284 619.071,585.693C625.303,584.168 629.082,583.008 630.407,582.212C631.932,581.284 632.694,580.058 632.694,578.533C632.694,576.876 631.932,575.533 630.407,574.506C628.883,573.478 626.662,572.965 623.745,572.965C620.43,572.965 617.978,573.677 616.387,575.102C614.796,576.528 613.536,578.699 612.608,581.616L601.869,577.141C603.194,572.567 605.714,568.904 609.426,566.153C613.138,563.402 617.845,562.026 623.546,562.026C630.043,562.026 635.313,563.717 639.357,567.098C643.467,570.479 645.522,575.716 645.522,582.809L645.522,616.22ZM621.657,594.642C618.541,595.371 616.42,596.266 615.293,597.327C614.166,598.388 613.602,599.68 613.602,601.205C613.602,604.785 616.188,606.575 621.359,606.575C625.137,606.575 628.037,605.862 630.059,604.437C632.081,603.011 633.092,601.139 633.092,598.818L633.092,589.67L632.893,589.67C632.496,590.333 632.197,590.764 631.998,590.963C631.004,591.957 627.557,593.184 621.657,594.642Z" style="fill:rgb(239,213,120);fill-rule:nonzero;stroke:black;stroke-width:0.72px;"/>
                    <path d="M692.158,595.239L692.158,584.4C692.158,581.35 691.114,578.798 689.026,576.743C686.938,574.688 684.203,573.661 680.822,573.661C676.911,573.661 673.779,575.086 671.426,577.936C669.072,580.787 667.896,584.764 667.896,589.869C667.896,594.973 669.089,598.951 671.475,601.802C673.862,604.652 676.978,606.077 680.822,606.077C684.203,606.077 686.938,605.05 689.026,602.995C691.114,600.94 692.158,598.354 692.158,595.239ZM658.747,626.959L668.393,620.297C669.984,623.346 671.74,625.534 673.663,626.86C675.585,628.186 678.038,628.849 681.021,628.849C688.446,628.849 692.158,625.17 692.158,617.811L692.158,611.149L691.96,611.149C690.965,613.005 689.225,614.563 686.739,615.822C684.253,617.082 681.618,617.712 678.834,617.712C672.072,617.712 666.404,615.259 661.83,610.353C657.256,605.381 654.969,598.553 654.969,589.869C654.969,581.384 657.322,574.622 662.029,569.584C666.669,564.545 672.205,562.026 678.635,562.026C684.667,562.026 689.308,564.214 692.556,568.589L692.755,568.589L692.755,563.518L705.085,563.518L705.085,616.22C705.085,623.91 702.831,629.81 698.324,633.92C693.816,638.03 688.048,640.085 681.021,640.085C675.652,640.085 671.044,638.925 667.199,636.605C663.355,634.285 660.537,631.069 658.747,626.959Z" style="fill:rgb(239,213,120);fill-rule:nonzero;stroke:black;stroke-width:0.72px;"/>
                    <path d="M730.939,601.901C732.994,604.685 735.911,606.077 739.69,606.077C743.468,606.077 746.385,604.685 748.44,601.901C750.562,598.984 751.622,594.973 751.622,589.869C751.622,584.698 750.529,580.721 748.341,577.936C746.286,575.086 743.402,573.661 739.69,573.661C736.044,573.661 733.127,575.053 730.939,577.837C728.818,580.688 727.757,584.698 727.757,589.869C727.757,595.04 728.818,599.05 730.939,601.901ZM715.029,589.869C715.029,581.251 717.416,574.456 722.189,569.484C726.962,564.512 732.795,562.026 739.69,562.026C746.584,562.026 752.418,564.512 757.191,569.484C761.964,574.456 764.35,581.251 764.35,589.869C764.35,598.686 762.03,605.514 757.39,610.353C752.683,615.259 746.783,617.712 739.69,617.712C732.597,617.712 726.697,615.259 721.99,610.353C717.349,605.514 715.029,598.686 715.029,589.869Z" style="fill:rgb(239,213,120);fill-rule:nonzero;stroke:black;stroke-width:0.72px;"/>
                    <path d="M787.718,616.22L774.791,616.22L774.791,563.518L787.022,563.518L787.022,569.086L787.221,569.086C788.216,567.098 789.691,565.507 791.646,564.313C793.602,563.12 795.74,562.524 798.06,562.524C799.85,562.524 801.441,562.855 802.833,563.518L800.844,576.047C799.253,575.517 797.894,575.252 796.767,575.252C790.735,575.252 787.718,579.262 787.718,587.284L787.718,616.22Z" style="fill:rgb(239,213,120);fill-rule:nonzero;stroke:black;stroke-width:0.72px;"/>
                    <path d="M852.154,616.22L841.316,616.22L841.316,611.149L841.117,611.149C841.117,611.215 840.967,611.464 840.669,611.895C840.371,612.325 839.857,612.872 839.128,613.535C838.399,614.198 837.52,614.828 836.493,615.425C835.465,616.021 834.09,616.552 832.366,617.016C830.642,617.48 828.786,617.712 826.798,617.712C820.699,617.712 816.009,616.253 812.727,613.336C809.446,610.42 807.805,606.674 807.805,602.1C807.805,597.592 809.147,594.128 811.832,591.709C814.517,589.289 819.141,587.284 825.704,585.693C831.935,584.168 835.714,583.008 837.04,582.212C838.564,581.284 839.327,580.058 839.327,578.533C839.327,576.876 838.564,575.533 837.04,574.506C835.515,573.478 833.294,572.965 830.377,572.965C827.063,572.965 824.61,573.677 823.019,575.102C821.428,576.528 820.168,578.699 819.24,581.616L808.501,577.141C809.827,572.567 812.346,568.904 816.058,566.153C819.771,563.402 824.477,562.026 830.178,562.026C836.675,562.026 841.945,563.717 845.989,567.098C850.099,570.479 852.154,575.716 852.154,582.809L852.154,616.22ZM828.289,594.642C825.173,595.371 823.052,596.266 821.925,597.327C820.798,598.388 820.235,599.68 820.235,601.205C820.235,604.785 822.82,606.575 827.991,606.575C831.769,606.575 834.67,605.862 836.692,604.437C838.714,603.011 839.724,601.139 839.724,598.818L839.724,589.67L839.526,589.67C839.128,590.333 838.83,590.764 838.631,590.963C837.636,591.957 834.189,593.184 828.289,594.642Z" style="fill:rgb(239,213,120);fill-rule:nonzero;stroke:black;stroke-width:0.72px;"/>
                </g>
                <g id="media" transform="matrix(1,0,0,1,-3.48033,0)">
                    <path d="M617.182,708.859L604.653,708.859L604.653,656.157L616.486,656.157L616.486,661.228L616.685,661.228C617.944,659.306 619.718,657.731 622.005,656.505C624.292,655.278 626.761,654.665 629.413,654.665C632.197,654.665 634.816,655.312 637.269,656.604C639.721,657.897 641.578,659.571 642.837,661.626L643.036,661.626C644.428,659.571 646.351,657.897 648.803,656.604C651.256,655.312 653.908,654.665 656.758,654.665C663.056,654.665 668.045,656.323 671.724,659.637C675.403,662.952 677.243,667.327 677.243,672.763L677.243,708.859L665.41,708.859L665.41,675.448C665.41,672.73 664.647,670.575 663.122,668.984C661.598,667.393 659.311,666.598 656.261,666.598C653.411,666.598 651.19,667.344 649.599,668.835C648.008,670.327 647.212,672.299 647.212,674.752L647.212,708.859L635.379,708.859L635.379,675.448C635.379,672.862 634.567,670.741 632.943,669.084C631.319,667.426 629.082,666.598 626.231,666.598C623.314,666.598 621.077,667.344 619.519,668.835C617.961,670.327 617.182,672.299 617.182,674.752L617.182,708.859Z" style="fill:rgb(239,213,120);fill-rule:nonzero;stroke:black;stroke-width:0.72px;"/>
                    <path d="M724.874,690.662L733.922,698.617C728.553,706.439 721.294,710.351 712.145,710.351C704.787,710.351 698.788,707.831 694.147,702.793C689.507,697.755 687.187,690.993 687.187,682.508C687.187,674.089 689.474,667.36 694.048,662.322C698.754,657.217 704.588,654.665 711.549,654.665C718.576,654.665 724.343,657.217 728.851,662.322C733.425,667.36 735.712,674.089 735.712,682.508L735.712,686.386L700.312,686.386C700.511,690.43 701.622,693.529 703.644,695.683C705.665,697.838 708.433,698.915 711.947,698.915C714.731,698.915 717.101,698.236 719.056,696.877C721.012,695.518 722.951,693.446 724.874,690.662ZM700.312,676.74L723.183,676.74C722.852,673.36 721.675,670.724 719.653,668.835C717.631,666.946 714.93,666.001 711.549,666.001C708.433,666.001 705.848,667.012 703.793,669.034C701.738,671.056 700.577,673.625 700.312,676.74Z" style="fill:rgb(239,213,120);fill-rule:nonzero;stroke:black;stroke-width:0.72px;"/>
                    <path d="M778.868,687.281L778.868,677.635C778.868,674.387 777.841,671.686 775.786,669.531C773.731,667.377 770.98,666.299 767.532,666.299C763.688,666.299 760.738,667.675 758.682,670.426C756.627,673.177 755.6,677.205 755.6,682.508C755.6,687.811 756.627,691.838 758.682,694.59C760.738,697.341 763.688,698.716 767.532,698.716C770.98,698.716 773.731,697.622 775.786,695.435C777.841,693.247 778.868,690.529 778.868,687.281ZM791.795,708.859L779.664,708.859L779.664,703.788L779.465,703.788C779.134,704.252 778.636,704.848 777.973,705.577C777.377,706.307 775.852,707.301 773.399,708.561C771.013,709.754 768.394,710.351 765.544,710.351C758.583,710.351 753.015,707.831 748.838,702.793C744.728,697.689 742.673,690.927 742.673,682.508C742.673,674.022 744.927,667.261 749.435,662.223C753.876,657.184 759.18,654.665 765.345,654.665C767.93,654.665 770.35,655.179 772.604,656.206C774.858,657.234 776.449,658.344 777.377,659.538L778.67,661.228L778.868,661.228L778.868,636.269L791.795,636.269L791.795,708.859Z" style="fill:rgb(239,213,120);fill-rule:nonzero;stroke:black;stroke-width:0.72px;"/>
                    <path d="M818.644,708.859L805.717,708.859L805.717,656.157L818.644,656.157L818.644,708.859ZM818.644,648.5L805.717,648.5L805.717,636.269L818.644,636.269L818.644,648.5Z" style="fill:rgb(239,213,120);fill-rule:nonzero;stroke:black;stroke-width:0.72px;"/>
                    <path d="M873.434,708.859L862.595,708.859L862.595,703.788L862.396,703.788C862.396,703.854 862.247,704.103 861.949,704.533C861.651,704.964 861.137,705.511 860.408,706.174C859.678,706.837 858.8,707.467 857.773,708.063C856.745,708.66 855.369,709.19 853.646,709.654C851.922,710.119 850.066,710.351 848.077,710.351C841.978,710.351 837.288,708.892 834.007,705.975C830.725,703.058 829.085,699.313 829.085,694.739C829.085,690.231 830.427,686.767 833.112,684.347C835.797,681.928 840.421,679.922 846.983,678.331C853.215,676.807 856.994,675.647 858.319,674.851C859.844,673.923 860.606,672.697 860.606,671.172C860.606,669.515 859.844,668.172 858.319,667.145C856.795,666.117 854.574,665.603 851.657,665.603C848.342,665.603 845.89,666.316 844.299,667.741C842.708,669.167 841.448,671.338 840.52,674.255L829.781,669.78C831.107,665.206 833.626,661.543 837.338,658.792C841.05,656.041 845.757,654.665 851.458,654.665C857.955,654.665 863.225,656.356 867.269,659.737C871.379,663.117 873.434,668.355 873.434,675.448L873.434,708.859ZM849.569,687.281C846.453,688.01 844.332,688.905 843.205,689.966C842.078,691.026 841.514,692.319 841.514,693.844C841.514,697.424 844.1,699.213 849.271,699.213C853.049,699.213 855.949,698.501 857.971,697.076C859.993,695.65 861.004,693.778 861.004,691.457L861.004,682.309L860.805,682.309C860.408,682.972 860.109,683.403 859.91,683.602C858.916,684.596 855.469,685.822 849.569,687.281Z" style="fill:rgb(239,213,120);fill-rule:nonzero;stroke:black;stroke-width:0.72px;"/>
                </g>
                <g id="production" transform="matrix(1,0,0,1,-3.48033,0)">
                    <path d="M617.58,769.678L617.58,780.516C617.58,783.632 618.624,786.218 620.712,788.273C622.8,790.328 625.535,791.355 628.916,791.355C632.761,791.355 635.876,789.93 638.263,787.079C640.649,784.229 641.843,780.251 641.843,775.147C641.843,770.042 640.666,766.065 638.313,763.214C635.959,760.364 632.827,758.938 628.916,758.938C625.535,758.938 622.8,759.966 620.712,762.021C618.624,764.076 617.58,766.628 617.58,769.678ZM617.58,823.871L604.653,823.871L604.653,748.796L616.983,748.796L616.983,753.867L617.182,753.867C617.182,753.668 617.613,753.088 618.475,752.127C619.337,751.166 620.944,750.122 623.298,748.995C625.651,747.868 628.352,747.304 631.402,747.304C637.633,747.304 643.069,749.823 647.71,754.861C652.416,759.9 654.77,766.661 654.77,775.147C654.77,783.698 652.516,790.493 648.008,795.532C643.5,800.503 638.031,802.989 631.601,802.989C628.153,802.989 625.286,802.343 622.999,801.05C620.712,799.758 619.105,798.448 618.176,797.123L617.779,796.426L617.58,796.426L617.58,823.871Z" style="fill:rgb(239,213,120);fill-rule:nonzero;stroke:black;stroke-width:0.72px;"/>
                    <path d="M678.138,801.498L665.211,801.498L665.211,748.796L677.442,748.796L677.442,754.364L677.64,754.364C678.635,752.375 680.11,750.784 682.065,749.591C684.021,748.398 686.159,747.801 688.479,747.801C690.269,747.801 691.86,748.133 693.252,748.796L691.263,761.325C689.672,760.795 688.313,760.529 687.187,760.529C681.154,760.529 678.138,764.54 678.138,772.561L678.138,801.498Z" style="fill:rgb(239,213,120);fill-rule:nonzero;stroke:black;stroke-width:0.72px;"/>
                    <path d="M712.145,787.179C714.201,789.963 717.117,791.355 720.896,791.355C724.675,791.355 727.592,789.963 729.647,787.179C731.768,784.262 732.829,780.251 732.829,775.147C732.829,769.976 731.735,765.998 729.547,763.214C727.492,760.364 724.608,758.938 720.896,758.938C717.25,758.938 714.333,760.33 712.145,763.115C710.024,765.965 708.963,769.976 708.963,775.147C708.963,780.318 710.024,784.328 712.145,787.179ZM696.235,775.147C696.235,766.529 698.622,759.734 703.395,754.762C708.168,749.79 714.002,747.304 720.896,747.304C727.79,747.304 733.624,749.79 738.397,754.762C743.17,759.734 745.557,766.529 745.557,775.147C745.557,783.964 743.236,790.792 738.596,795.631C733.889,800.537 727.989,802.989 720.896,802.989C713.803,802.989 707.903,800.537 703.196,795.631C698.556,790.792 696.235,783.964 696.235,775.147Z" style="fill:rgb(239,213,120);fill-rule:nonzero;stroke:black;stroke-width:0.72px;"/>
                    <path d="M788.713,779.92L788.713,770.274C788.713,767.026 787.685,764.325 785.63,762.17C783.575,760.016 780.824,758.938 777.377,758.938C773.532,758.938 770.582,760.314 768.527,763.065C766.472,765.816 765.444,769.843 765.444,775.147C765.444,780.45 766.472,784.477 768.527,787.228C770.582,789.98 773.532,791.355 777.377,791.355C780.824,791.355 783.575,790.261 785.63,788.074C787.685,785.886 788.713,783.168 788.713,779.92ZM801.64,801.498L789.508,801.498L789.508,796.426L789.309,796.426C788.978,796.891 788.481,797.487 787.818,798.216C787.221,798.946 785.696,799.94 783.244,801.2C780.857,802.393 778.239,802.989 775.388,802.989C768.427,802.989 762.859,800.47 758.682,795.432C754.572,790.328 752.517,783.566 752.517,775.147C752.517,766.661 754.771,759.9 759.279,754.861C763.721,749.823 769.024,747.304 775.189,747.304C777.775,747.304 780.194,747.818 782.448,748.845C784.702,749.873 786.293,750.983 787.221,752.177L788.514,753.867L788.713,753.867L788.713,728.908L801.64,728.908L801.64,801.498Z" style="fill:rgb(239,213,120);fill-rule:nonzero;stroke:black;stroke-width:0.72px;"/>
                    <path d="M815.064,782.803L815.064,748.796L827.991,748.796L827.991,781.411C827.991,784.726 828.621,787.079 829.88,788.471C831.14,789.864 833.162,790.56 835.946,790.56C839.194,790.56 841.746,789.731 843.603,788.074C845.459,786.416 846.387,783.864 846.387,780.417L846.387,748.796L859.314,748.796L859.314,801.498L846.983,801.498L846.983,796.426L846.785,796.426C843.47,800.802 838.896,802.989 833.062,802.989C827.096,802.989 822.605,801.216 819.588,797.669C816.572,794.123 815.064,789.168 815.064,782.803Z" style="fill:rgb(239,213,120);fill-rule:nonzero;stroke:black;stroke-width:0.72px;"/>
                    <path d="M904.856,780.218L917.087,783.4C915.894,789.698 913.309,794.537 909.331,797.918C905.354,801.299 900.349,802.989 894.316,802.989C887.223,802.989 881.323,800.537 876.616,795.631C872.042,790.792 869.755,783.964 869.755,775.147C869.755,766.462 872.108,759.668 876.815,754.762C881.588,749.79 887.455,747.304 894.415,747.304C900.315,747.304 905.254,749.028 909.232,752.475C913.209,755.922 915.662,760.529 916.59,766.297L904.558,768.584C903.299,762.154 899.918,758.938 894.415,758.938C890.703,758.938 887.786,760.33 885.665,763.115C883.544,765.899 882.483,769.91 882.483,775.147C882.483,780.384 883.527,784.394 885.615,787.179C887.703,789.963 890.637,791.355 894.415,791.355C900.315,791.355 903.796,787.643 904.856,780.218Z" style="fill:rgb(239,213,120);fill-rule:nonzero;stroke:black;stroke-width:0.72px;"/>
                    <path d="M929.716,782.704L929.716,759.734L921.562,759.734L921.562,748.796L930.014,748.796L930.014,735.869L942.245,735.869L942.245,748.796L955.57,748.796L955.57,759.734L942.444,759.734L942.444,781.511C942.444,784.361 942.925,786.334 943.886,787.427C944.847,788.521 946.72,789.068 949.504,789.068L953.78,789.068L953.78,801.498L948.311,801.498C941.284,801.498 936.411,800.006 933.693,797.023C931.042,794.106 929.716,789.333 929.716,782.704Z" style="fill:rgb(239,213,120);fill-rule:nonzero;stroke:black;stroke-width:0.72px;"/>
                    <path d="M978.441,801.498L965.514,801.498L965.514,748.796L978.441,748.796L978.441,801.498ZM978.441,741.139L965.514,741.139L965.514,728.908L978.441,728.908L978.441,741.139Z" style="fill:rgb(239,213,120);fill-rule:nonzero;stroke:black;stroke-width:0.72px;"/>
                    <path d="M1004.79,787.179C1006.85,789.963 1009.76,791.355 1013.54,791.355C1017.32,791.355 1020.24,789.963 1022.29,787.179C1024.41,784.262 1025.47,780.251 1025.47,775.147C1025.47,769.976 1024.38,765.998 1022.19,763.214C1020.14,760.364 1017.25,758.938 1013.54,758.938C1009.9,758.938 1006.98,760.33 1004.79,763.115C1002.67,765.965 1001.61,769.976 1001.61,775.147C1001.61,780.318 1002.67,784.328 1004.79,787.179ZM988.882,775.147C988.882,766.529 991.268,759.734 996.041,754.762C1000.81,749.79 1006.65,747.304 1013.54,747.304C1020.44,747.304 1026.27,749.79 1031.04,754.762C1035.82,759.734 1038.2,766.529 1038.2,775.147C1038.2,783.964 1035.88,790.792 1031.24,795.631C1026.54,800.537 1020.63,802.989 1013.54,802.989C1006.45,802.989 1000.55,800.537 995.842,795.631C991.202,790.792 988.882,783.964 988.882,775.147Z" style="fill:rgb(239,213,120);fill-rule:nonzero;stroke:black;stroke-width:0.72px;"/>
                    <path d="M1061.57,801.498L1048.64,801.498L1048.64,748.796L1061.07,748.796L1061.07,753.867L1061.27,753.867C1062.73,751.945 1064.74,750.37 1067.29,749.144C1069.84,747.917 1072.48,747.304 1075.19,747.304C1081.03,747.304 1085.6,749.044 1088.92,752.525C1092.23,756.005 1093.89,760.828 1093.89,766.993L1093.89,801.498L1080.96,801.498L1080.96,770.175C1080.96,766.462 1080.25,763.711 1078.82,761.921C1077.4,760.132 1075.03,759.237 1071.71,759.237C1068.53,759.237 1066.05,760.148 1064.26,761.971C1062.47,763.794 1061.57,766.23 1061.57,769.28L1061.57,801.498Z" style="fill:rgb(239,213,120);fill-rule:nonzero;stroke:black;stroke-width:0.72px;"/>
                </g>
            </g>
            <g id="a--yellow-" serif:id="a (yellow)" transform="matrix(0.933124,0,0,0.933124,22.3206,14.2348)">
                <g transform="matrix(1.48862,0,0,1.48862,-236.996,-165.892)">
                    <path d="M165,570L165,486L298.8,486.2L432.5,486.5L432.5,569.5L298.8,569.8L165,570Z" style="fill:none;stroke:black;stroke-width:1.33px;"/>
                    <path d="M165,570L165,486L298.8,486.2L432.5,486.5L432.5,569.5L298.8,569.8L165,570Z" style="fill:rgb(239,213,120);"/>
                </g>
                <g transform="matrix(8.75955,0,0,8.75955,-7063.11,-4895.78)">
                    <path d="M852.72,616.698L840.72,616.766L840.78,613.4L840.726,612.734C840.726,612.8 840.694,612.689 840.396,613.12C840.098,613.551 839.879,613.631 839.15,614.294C838.421,614.957 837.577,615.434 836.55,616.03C835.522,616.627 834.116,617.248 832.393,617.712C830.669,618.176 828.749,618.277 826.76,618.277C820.661,618.277 815.689,616.769 812.408,613.852C809.126,610.935 807.318,606.68 807.318,602.105C807.318,597.598 808.892,593.625 811.577,591.206C814.262,588.786 819.071,586.734 825.634,585.143C831.865,583.618 835.43,582.494 836.756,581.698C838.281,580.77 838.782,580.04 838.782,578.515C838.782,576.858 838.225,575.992 836.7,574.964C835.176,573.937 833.328,573.515 830.411,573.515C827.097,573.515 825.02,574.096 823.429,575.521C821.838,576.947 820.528,579.521 819.6,582.437L807.805,577.46C809.131,572.886 812.195,568.417 815.908,565.666C819.62,562.915 824.278,561.451 829.98,561.451C836.476,561.451 842.453,563.3 846.496,566.68C850.607,570.061 852.778,575.716 852.778,582.809L852.72,616.698ZM828.349,595.149C825.233,595.879 823.412,596.677 822.285,597.737C821.158,598.798 820.815,599.712 820.815,601.236C820.815,604.816 822.815,605.988 827.985,605.988C831.764,605.988 834.241,605.464 836.262,604.039C838.284,602.614 839.209,601.114 839.209,598.794L839.081,591.206C838.684,591.868 838.812,591.496 838.613,591.695C837.619,592.689 834.249,593.691 828.349,595.149Z" style="fill:none;fill-rule:nonzero;stroke:black;stroke-width:0.23px;"/>
                    <path d="M852.72,616.698L840.72,616.766L840.78,613.4L840.726,612.734C840.726,612.8 840.694,612.689 840.396,613.12C840.098,613.551 839.879,613.631 839.15,614.294C838.421,614.957 837.577,615.434 836.55,616.03C835.522,616.627 834.116,617.248 832.393,617.712C830.669,618.176 828.749,618.277 826.76,618.277C820.661,618.277 815.689,616.769 812.408,613.852C809.126,610.935 807.318,606.68 807.318,602.105C807.318,597.598 808.892,593.625 811.577,591.206C814.262,588.786 819.071,586.734 825.634,585.143C831.865,583.618 835.43,582.494 836.756,581.698C838.281,580.77 838.782,580.04 838.782,578.515C838.782,576.858 838.225,575.992 836.7,574.964C835.176,573.937 833.328,573.515 830.411,573.515C827.097,573.515 825.02,574.096 823.429,575.521C821.838,576.947 820.528,579.521 819.6,582.437L807.805,577.46C809.131,572.886 812.195,568.417 815.908,565.666C819.62,562.915 824.278,561.451 829.98,561.451C836.476,561.451 842.453,563.3 846.496,566.68C850.607,570.061 852.778,575.716 852.778,582.809L852.72,616.698ZM828.349,595.149C825.233,595.879 823.412,596.677 822.285,597.737C821.158,598.798 820.815,599.712 820.815,601.236C820.815,604.816 822.815,605.988 827.985,605.988C831.764,605.988 834.241,605.464 836.262,604.039C838.284,602.614 839.209,601.114 839.209,598.794L839.081,591.206C838.684,591.868 838.812,591.496 838.613,591.695C837.619,592.689 834.249,593.691 828.349,595.149Z" style="fill:rgb(239,213,120);fill-rule:nonzero;"/>
                </g>
            </g>
        </g>
    </g>
</svg>
